STARTFONT 2.1
FONT -DIGITAL-VT220-Bold-r-Normal-80col-40-400-75-75-c-200-iso10646-1
SIZE 40 75 75
FONTBOUNDINGBOX 20 40 0 -8
STARTPROPERTIES 21
FOUNDRY "DIGITAL"
FAMILY_NAME "vt220"
WEIGHT_NAME "Bold"
RELATIVE_SETWIDTH 50
SLANT "r"
SETWIDTH_NAME "Normal"
ADD_STYLE_NAME "80col"
PIXEL_SIZE 40
POINT_SIZE 400
RESOLUTION_X 75
RESOLUTION_Y 75
SPACING "c"
CHARSET_REGISTRY "ISO10646"
CHARSET_ENCODING "1"
CAP_HEIGHT 28
X_HEIGHT 20
WEIGHT 10
QUAD_WIDTH 20
FONT_ASCENT 32
FONT_DESCENT 8
AVERAGE_WIDTH 200
ENDPROPERTIES
CHARS 237
STARTCHAR U+00FD
ENCODING 253
SWIDTH 1000 0
DWIDTH 20 0
BBX 20 40 0 -8
BITMAP
000000
000000
000000
000000
000000
000000
000000
000000
000000
000000
000000
000000
000000
000000
000000
000000
000000
000000
000000
000000
000000
000000
000000
000000
000000
000000
000000
000000
000000
000000
000000
000000
000000
000000
000000
000000
000000
000000
000000
000000
ENDCHAR
STARTCHAR U+25A1
ENCODING 9633
SWIDTH 1000 0
DWIDTH 20 0
BBX 20 40 0 -8
BITMAP
000000
000000
000000
000000
ffff00
ffff00
ffff00
ffff00
f01f00
f01f00
f01f00
f01f00
f01f00
f01f00
f01f00
f01f00
f01f00
f01f00
f01f00
f01f00
f01f00
f01f00
f01f00
f01f00
f01f00
f01f00
f01f00
f01f00
ffff00
ffff00
ffff00
ffff00
000000
000000
000000
000000
000000
000000
000000
000000
ENDCHAR
STARTCHAR U+00FE
ENCODING 254
SWIDTH 1000 0
DWIDTH 20 0
BBX 20 40 0 -8
BITMAP
000000
000000
000000
000000
f00000
f00000
f00000
f00000
f00000
f00000
f00000
f00000
fffc00
fffc00
fffc00
fffc00
fc1f00
fc1f00
fc1f00
fc1f00
fc1f00
fc1f00
fc1f00
fc1f00
fffc00
fffc00
fffc00
fffc00
f00000
f00000
f00000
f00000
f00000
f00000
f00000
f00000
f00000
f00000
f00000
f00000
ENDCHAR
STARTCHAR U+00FF
ENCODING 255
SWIDTH 1000 0
DWIDTH 20 0
BBX 20 40 0 -8
BITMAP
000000
000000
000000
000000
7c7c00
7c7c00
7c7c00
7c7c00
000000
000000
000000
000000
f07c00
f07c00
f07c00
f07c00
f07c00
f07c00
f07c00
f07c00
f1fc00
f1fc00
f1fc00
f1fc00
7ffc00
7ffc00
7ffc00
7ffc00
007c00
007c00
007c00
007c00
f07c00
f07c00
f07c00
f07c00
7ff000
7ff000
7ff000
7ff000
ENDCHAR
STARTCHAR U+00FC
ENCODING 252
SWIDTH 1000 0
DWIDTH 20 0
BBX 20 40 0 -8
BITMAP
000000
000000
000000
000000
7c7c00
7c7c00
7c7c00
7c7c00
000000
000000
000000
000000
f07c00
f07c00
f07c00
f07c00
f07c00
f07c00
f07c00
f07c00
f07c00
f07c00
f07c00
f07c00
f07c00
f07c00
f07c00
f07c00
7fff00
7fff00
7fff00
7fff00
000000
000000
000000
000000
000000
000000
000000
000000
ENDCHAR
STARTCHAR U+00FB
ENCODING 251
SWIDTH 1000 0
DWIDTH 20 0
BBX 20 40 0 -8
BITMAP
1ff000
1ff000
1ff000
1ff000
7c7c00
7c7c00
7c7c00
7c7c00
000000
000000
000000
000000
f07c00
f07c00
f07c00
f07c00
f07c00
f07c00
f07c00
f07c00
f07c00
f07c00
f07c00
f07c00
f07c00
f07c00
f07c00
f07c00
7fff00
7fff00
7fff00
7fff00
000000
000000
000000
000000
000000
000000
000000
000000
ENDCHAR
STARTCHAR U+00FA
ENCODING 250
SWIDTH 1000 0
DWIDTH 20 0
BBX 20 40 0 -8
BITMAP
000000
000000
000000
000000
07f000
07f000
07f000
07f000
7f0000
7f0000
7f0000
7f0000
f07c00
f07c00
f07c00
f07c00
f07c00
f07c00
f07c00
f07c00
f07c00
f07c00
f07c00
f07c00
f07c00
f07c00
f07c00
f07c00
7fff00
7fff00
7fff00
7fff00
000000
000000
000000
000000
000000
000000
000000
000000
ENDCHAR
STARTCHAR U+00F9
ENCODING 249
SWIDTH 1000 0
DWIDTH 20 0
BBX 20 40 0 -8
BITMAP
000000
000000
000000
000000
7f0000
7f0000
7f0000
7f0000
07f000
07f000
07f000
07f000
f07c00
f07c00
f07c00
f07c00
f07c00
f07c00
f07c00
f07c00
f07c00
f07c00
f07c00
f07c00
f07c00
f07c00
f07c00
f07c00
7fff00
7fff00
7fff00
7fff00
000000
000000
000000
000000
000000
000000
000000
000000
ENDCHAR
STARTCHAR U+00F8
ENCODING 248
SWIDTH 1000 0
DWIDTH 20 0
BBX 20 40 0 -8
BITMAP
000000
000000
000000
000000
000000
000000
000000
000000
001f00
001f00
001f00
001f00
7ffc00
7ffc00
7ffc00
7ffc00
f1ff00
f1ff00
f1ff00
f1ff00
f7df00
f7df00
f7df00
f7df00
ff1f00
ff1f00
ff1f00
ff1f00
7ffc00
7ffc00
7ffc00
7ffc00
f00000
f00000
f00000
f00000
000000
000000
000000
000000
ENDCHAR
STARTCHAR U+0153
ENCODING 339
SWIDTH 1000 0
DWIDTH 20 0
BBX 20 40 0 -8
BITMAP
000000
000000
000000
000000
000000
000000
000000
000000
000000
000000
000000
000000
7ffc00
7ffc00
7ffc00
7ffc00
f7df00
f7df00
f7df00
f7df00
f7ff00
f7ff00
f7ff00
f7ff00
f7c000
f7c000
f7c000
f7c000
7fff00
7fff00
7fff00
7fff00
000000
000000
000000
000000
000000
000000
000000
000000
ENDCHAR
STARTCHAR U+00F6
ENCODING 246
SWIDTH 1000 0
DWIDTH 20 0
BBX 20 40 0 -8
BITMAP
000000
000000
000000
000000
7c7c00
7c7c00
7c7c00
7c7c00
000000
000000
000000
000000
7ffc00
7ffc00
7ffc00
7ffc00
f01f00
f01f00
f01f00
f01f00
f01f00
f01f00
f01f00
f01f00
f01f00
f01f00
f01f00
f01f00
7ffc00
7ffc00
7ffc00
7ffc00
000000
000000
000000
000000
000000
000000
000000
000000
ENDCHAR
STARTCHAR U+00F5
ENCODING 245
SWIDTH 1000 0
DWIDTH 20 0
BBX 20 40 0 -8
BITMAP
7f7c00
7f7c00
7f7c00
7f7c00
f7f000
f7f000
f7f000
f7f000
000000
000000
000000
000000
7ffc00
7ffc00
7ffc00
7ffc00
f01f00
f01f00
f01f00
f01f00
f01f00
f01f00
f01f00
f01f00
f01f00
f01f00
f01f00
f01f00
7ffc00
7ffc00
7ffc00
7ffc00
000000
000000
000000
000000
000000
000000
000000
000000
ENDCHAR
STARTCHAR U+00F4
ENCODING 244
SWIDTH 1000 0
DWIDTH 20 0
BBX 20 40 0 -8
BITMAP
1ff000
1ff000
1ff000
1ff000
7c7c00
7c7c00
7c7c00
7c7c00
000000
000000
000000
000000
7ffc00
7ffc00
7ffc00
7ffc00
f01f00
f01f00
f01f00
f01f00
f01f00
f01f00
f01f00
f01f00
f01f00
f01f00
f01f00
f01f00
7ffc00
7ffc00
7ffc00
7ffc00
000000
000000
000000
000000
000000
000000
000000
000000
ENDCHAR
STARTCHAR U+00F3
ENCODING 243
SWIDTH 1000 0
DWIDTH 20 0
BBX 20 40 0 -8
BITMAP
000000
000000
000000
000000
07f000
07f000
07f000
07f000
7f0000
7f0000
7f0000
7f0000
7ffc00
7ffc00
7ffc00
7ffc00
f01f00
f01f00
f01f00
f01f00
f01f00
f01f00
f01f00
f01f00
f01f00
f01f00
f01f00
f01f00
7ffc00
7ffc00
7ffc00
7ffc00
000000
000000
000000
000000
000000
000000
000000
000000
ENDCHAR
STARTCHAR U+00F2
ENCODING 242
SWIDTH 1000 0
DWIDTH 20 0
BBX 20 40 0 -8
BITMAP
000000
000000
000000
000000
1fc000
1fc000
1fc000
1fc000
01fc00
01fc00
01fc00
01fc00
7ffc00
7ffc00
7ffc00
7ffc00
f01f00
f01f00
f01f00
f01f00
f01f00
f01f00
f01f00
f01f00
f01f00
f01f00
f01f00
f01f00
7ffc00
7ffc00
7ffc00
7ffc00
000000
000000
000000
000000
000000
000000
000000
000000
ENDCHAR
STARTCHAR U+00F1
ENCODING 241
SWIDTH 1000 0
DWIDTH 20 0
BBX 20 40 0 -8
BITMAP
7f7c00
7f7c00
7f7c00
7f7c00
f7f000
f7f000
f7f000
f7f000
000000
000000
000000
000000
fffc00
fffc00
fffc00
fffc00
fc1f00
fc1f00
fc1f00
fc1f00
f01f00
f01f00
f01f00
f01f00
f01f00
f01f00
f01f00
f01f00
f01f00
f01f00
f01f00
f01f00
000000
000000
000000
000000
000000
000000
000000
000000
ENDCHAR
STARTCHAR U+00F0
ENCODING 240
SWIDTH 1000 0
DWIDTH 20 0
BBX 20 40 0 -8
BITMAP
07df00
07df00
07df00
07df00
01fc00
01fc00
01fc00
01fc00
07df00
07df00
07df00
07df00
7fff00
7fff00
7fff00
7fff00
f07f00
f07f00
f07f00
f07f00
f01f00
f01f00
f01f00
f01f00
f07c00
f07c00
f07c00
f07c00
7ff000
7ff000
7ff000
7ff000
000000
000000
000000
000000
000000
000000
000000
000000
ENDCHAR
STARTCHAR U+00EF
ENCODING 239
SWIDTH 1000 0
DWIDTH 20 0
BBX 20 40 0 -8
BITMAP
000000
000000
000000
000000
7c7c00
7c7c00
7c7c00
7c7c00
000000
000000
000000
000000
1fc000
1fc000
1fc000
1fc000
07c000
07c000
07c000
07c000
07c000
07c000
07c000
07c000
07c000
07c000
07c000
07c000
7ffc00
7ffc00
7ffc00
7ffc00
000000
000000
000000
000000
000000
000000
000000
000000
ENDCHAR
STARTCHAR U+00EE
ENCODING 238
SWIDTH 1000 0
DWIDTH 20 0
BBX 20 40 0 -8
BITMAP
1ff000
1ff000
1ff000
1ff000
7c7c00
7c7c00
7c7c00
7c7c00
000000
000000
000000
000000
1fc000
1fc000
1fc000
1fc000
07c000
07c000
07c000
07c000
07c000
07c000
07c000
07c000
07c000
07c000
07c000
07c000
7ffc00
7ffc00
7ffc00
7ffc00
000000
000000
000000
000000
000000
000000
000000
000000
ENDCHAR
STARTCHAR U+00ED
ENCODING 237
SWIDTH 1000 0
DWIDTH 20 0
BBX 20 40 0 -8
BITMAP
000000
000000
000000
000000
07f000
07f000
07f000
07f000
7f0000
7f0000
7f0000
7f0000
1fc000
1fc000
1fc000
1fc000
07c000
07c000
07c000
07c000
07c000
07c000
07c000
07c000
07c000
07c000
07c000
07c000
7ffc00
7ffc00
7ffc00
7ffc00
000000
000000
000000
000000
000000
000000
000000
000000
ENDCHAR
STARTCHAR U+00EC
ENCODING 236
SWIDTH 1000 0
DWIDTH 20 0
BBX 20 40 0 -8
BITMAP
000000
000000
000000
000000
7f0000
7f0000
7f0000
7f0000
07f000
07f000
07f000
07f000
1fc000
1fc000
1fc000
1fc000
07c000
07c000
07c000
07c000
07c000
07c000
07c000
07c000
07c000
07c000
07c000
07c000
7ffc00
7ffc00
7ffc00
7ffc00
000000
000000
000000
000000
000000
000000
000000
000000
ENDCHAR
STARTCHAR U+00EB
ENCODING 235
SWIDTH 1000 0
DWIDTH 20 0
BBX 20 40 0 -8
BITMAP
000000
000000
000000
000000
7c7c00
7c7c00
7c7c00
7c7c00
000000
000000
000000
000000
7ffc00
7ffc00
7ffc00
7ffc00
f01f00
f01f00
f01f00
f01f00
ffff00
ffff00
ffff00
ffff00
f00000
f00000
f00000
f00000
7ffc00
7ffc00
7ffc00
7ffc00
000000
000000
000000
000000
000000
000000
000000
000000
ENDCHAR
STARTCHAR U+00EA
ENCODING 234
SWIDTH 1000 0
DWIDTH 20 0
BBX 20 40 0 -8
BITMAP
1ff000
1ff000
1ff000
1ff000
7c7c00
7c7c00
7c7c00
7c7c00
000000
000000
000000
000000
7ffc00
7ffc00
7ffc00
7ffc00
f01f00
f01f00
f01f00
f01f00
ffff00
ffff00
ffff00
ffff00
f00000
f00000
f00000
f00000
7ffc00
7ffc00
7ffc00
7ffc00
000000
000000
000000
000000
000000
000000
000000
000000
ENDCHAR
STARTCHAR U+00E9
ENCODING 233
SWIDTH 1000 0
DWIDTH 20 0
BBX 20 40 0 -8
BITMAP
000000
000000
000000
000000
07f000
07f000
07f000
07f000
7f0000
7f0000
7f0000
7f0000
7ffc00
7ffc00
7ffc00
7ffc00
f01f00
f01f00
f01f00
f01f00
ffff00
ffff00
ffff00
ffff00
f00000
f00000
f00000
f00000
7ffc00
7ffc00
7ffc00
7ffc00
000000
000000
000000
000000
000000
000000
000000
000000
ENDCHAR
STARTCHAR U+00E8
ENCODING 232
SWIDTH 1000 0
DWIDTH 20 0
BBX 20 40 0 -8
BITMAP
000000
000000
000000
000000
1fc000
1fc000
1fc000
1fc000
01fc00
01fc00
01fc00
01fc00
7ffc00
7ffc00
7ffc00
7ffc00
f01f00
f01f00
f01f00
f01f00
ffff00
ffff00
ffff00
ffff00
f00000
f00000
f00000
f00000
7ffc00
7ffc00
7ffc00
7ffc00
000000
000000
000000
000000
000000
000000
000000
000000
ENDCHAR
STARTCHAR U+00E7
ENCODING 231
SWIDTH 1000 0
DWIDTH 20 0
BBX 20 40 0 -8
BITMAP
000000
000000
000000
000000
000000
000000
000000
000000
000000
000000
000000
000000
7ffc00
7ffc00
7ffc00
7ffc00
f01f00
f01f00
f01f00
f01f00
f00000
f00000
f00000
f00000
f01f00
f01f00
f01f00
f01f00
7ffc00
7ffc00
7ffc00
7ffc00
01f000
01f000
01f000
01f000
1ff000
1ff000
1ff000
1ff000
ENDCHAR
STARTCHAR U+00E6
ENCODING 230
SWIDTH 1000 0
DWIDTH 20 0
BBX 20 40 0 -8
BITMAP
000000
000000
000000
000000
000000
000000
000000
000000
000000
000000
000000
000000
7ffc00
7ffc00
7ffc00
7ffc00
07df00
07df00
07df00
07df00
7fff00
7fff00
7fff00
7fff00
f7c000
f7c000
f7c000
f7c000
7fff00
7fff00
7fff00
7fff00
000000
000000
000000
000000
000000
000000
000000
000000
ENDCHAR
STARTCHAR U+00E5
ENCODING 229
SWIDTH 1000 0
DWIDTH 20 0
BBX 20 40 0 -8
BITMAP
1ff000
1ff000
1ff000
1ff000
7c7c00
7c7c00
7c7c00
7c7c00
1ff000
1ff000
1ff000
1ff000
7ffc00
7ffc00
7ffc00
7ffc00
001f00
001f00
001f00
001f00
7fff00
7fff00
7fff00
7fff00
f07f00
f07f00
f07f00
f07f00
7fff00
7fff00
7fff00
7fff00
000000
000000
000000
000000
000000
000000
000000
000000
ENDCHAR
STARTCHAR U+00E4
ENCODING 228
SWIDTH 1000 0
DWIDTH 20 0
BBX 20 40 0 -8
BITMAP
000000
000000
000000
000000
7c7c00
7c7c00
7c7c00
7c7c00
000000
000000
000000
000000
7ffc00
7ffc00
7ffc00
7ffc00
001f00
001f00
001f00
001f00
7fff00
7fff00
7fff00
7fff00
f07f00
f07f00
f07f00
f07f00
7fff00
7fff00
7fff00
7fff00
000000
000000
000000
000000
000000
000000
000000
000000
ENDCHAR
STARTCHAR U+00E3
ENCODING 227
SWIDTH 1000 0
DWIDTH 20 0
BBX 20 40 0 -8
BITMAP
1fdf00
1fdf00
1fdf00
1fdf00
7dfc00
7dfc00
7dfc00
7dfc00
000000
000000
000000
000000
7ffc00
7ffc00
7ffc00
7ffc00
001f00
001f00
001f00
001f00
7fff00
7fff00
7fff00
7fff00
f07f00
f07f00
f07f00
f07f00
7fff00
7fff00
7fff00
7fff00
000000
000000
000000
000000
000000
000000
000000
000000
ENDCHAR
STARTCHAR U+00E2
ENCODING 226
SWIDTH 1000 0
DWIDTH 20 0
BBX 20 40 0 -8
BITMAP
1ff000
1ff000
1ff000
1ff000
7c7c00
7c7c00
7c7c00
7c7c00
000000
000000
000000
000000
7ffc00
7ffc00
7ffc00
7ffc00
001f00
001f00
001f00
001f00
7fff00
7fff00
7fff00
7fff00
f07f00
f07f00
f07f00
f07f00
7fff00
7fff00
7fff00
7fff00
000000
000000
000000
000000
000000
000000
000000
000000
ENDCHAR
STARTCHAR U+00E1
ENCODING 225
SWIDTH 1000 0
DWIDTH 20 0
BBX 20 40 0 -8
BITMAP
000000
000000
000000
000000
07f000
07f000
07f000
07f000
7f0000
7f0000
7f0000
7f0000
7ffc00
7ffc00
7ffc00
7ffc00
001f00
001f00
001f00
001f00
7fff00
7fff00
7fff00
7fff00
f07f00
f07f00
f07f00
f07f00
7fff00
7fff00
7fff00
7fff00
000000
000000
000000
000000
000000
000000
000000
000000
ENDCHAR
STARTCHAR U+00E0
ENCODING 224
SWIDTH 1000 0
DWIDTH 20 0
BBX 20 40 0 -8
BITMAP
000000
000000
000000
000000
1fc000
1fc000
1fc000
1fc000
01fc00
01fc00
01fc00
01fc00
7ffc00
7ffc00
7ffc00
7ffc00
001f00
001f00
001f00
001f00
7fff00
7fff00
7fff00
7fff00
f07f00
f07f00
f07f00
f07f00
7fff00
7fff00
7fff00
7fff00
000000
000000
000000
000000
000000
000000
000000
000000
ENDCHAR
STARTCHAR U+00DF
ENCODING 223
SWIDTH 1000 0
DWIDTH 20 0
BBX 20 40 0 -8
BITMAP
000000
000000
000000
000000
1ff000
1ff000
1ff000
1ff000
7c7c00
7c7c00
7c7c00
7c7c00
f07c00
f07c00
f07c00
f07c00
fff000
fff000
fff000
fff000
f07c00
f07c00
f07c00
f07c00
ff1f00
ff1f00
ff1f00
ff1f00
f7fc00
f7fc00
f7fc00
f7fc00
f00000
f00000
f00000
f00000
000000
000000
000000
000000
ENDCHAR
STARTCHAR U+00DE
ENCODING 222
SWIDTH 1000 0
DWIDTH 20 0
BBX 20 40 0 -8
BITMAP
000000
000000
000000
000000
fc0000
fc0000
fc0000
fc0000
7ffc00
7ffc00
7ffc00
7ffc00
7c1f00
7c1f00
7c1f00
7c1f00
7c1f00
7c1f00
7c1f00
7c1f00
7c1f00
7c1f00
7c1f00
7c1f00
7ffc00
7ffc00
7ffc00
7ffc00
fc0000
fc0000
fc0000
fc0000
000000
000000
000000
000000
000000
000000
000000
000000
ENDCHAR
STARTCHAR U+0178
ENCODING 376
SWIDTH 1000 0
DWIDTH 20 0
BBX 20 40 0 -8
BITMAP
7c7c00
7c7c00
7c7c00
7c7c00
000000
000000
000000
000000
f01f00
f01f00
f01f00
f01f00
7c7c00
7c7c00
7c7c00
7c7c00
1ff000
1ff000
1ff000
1ff000
07c000
07c000
07c000
07c000
07c000
07c000
07c000
07c000
07c000
07c000
07c000
07c000
000000
000000
000000
000000
000000
000000
000000
000000
ENDCHAR
STARTCHAR U+00DC
ENCODING 220
SWIDTH 1000 0
DWIDTH 20 0
BBX 20 40 0 -8
BITMAP
7c7c00
7c7c00
7c7c00
7c7c00
000000
000000
000000
000000
f01f00
f01f00
f01f00
f01f00
f01f00
f01f00
f01f00
f01f00
f01f00
f01f00
f01f00
f01f00
f01f00
f01f00
f01f00
f01f00
f01f00
f01f00
f01f00
f01f00
7ffc00
7ffc00
7ffc00
7ffc00
000000
000000
000000
000000
000000
000000
000000
000000
ENDCHAR
STARTCHAR U+00DB
ENCODING 219
SWIDTH 1000 0
DWIDTH 20 0
BBX 20 40 0 -8
BITMAP
07c000
07c000
07c000
07c000
1ff000
1ff000
1ff000
1ff000
f01f00
f01f00
f01f00
f01f00
f01f00
f01f00
f01f00
f01f00
f01f00
f01f00
f01f00
f01f00
f01f00
f01f00
f01f00
f01f00
f01f00
f01f00
f01f00
f01f00
7ffc00
7ffc00
7ffc00
7ffc00
000000
000000
000000
000000
000000
000000
000000
000000
ENDCHAR
STARTCHAR U+00DA
ENCODING 218
SWIDTH 1000 0
DWIDTH 20 0
BBX 20 40 0 -8
BITMAP
01fc00
01fc00
01fc00
01fc00
1fc000
1fc000
1fc000
1fc000
f01f00
f01f00
f01f00
f01f00
f01f00
f01f00
f01f00
f01f00
f01f00
f01f00
f01f00
f01f00
f01f00
f01f00
f01f00
f01f00
f01f00
f01f00
f01f00
f01f00
7ffc00
7ffc00
7ffc00
7ffc00
000000
000000
000000
000000
000000
000000
000000
000000
ENDCHAR
STARTCHAR U+00D9
ENCODING 217
SWIDTH 1000 0
DWIDTH 20 0
BBX 20 40 0 -8
BITMAP
7f0000
7f0000
7f0000
7f0000
07f000
07f000
07f000
07f000
f01f00
f01f00
f01f00
f01f00
f01f00
f01f00
f01f00
f01f00
f01f00
f01f00
f01f00
f01f00
f01f00
f01f00
f01f00
f01f00
f01f00
f01f00
f01f00
f01f00
7ffc00
7ffc00
7ffc00
7ffc00
000000
000000
000000
000000
000000
000000
000000
000000
ENDCHAR
STARTCHAR U+00D8
ENCODING 216
SWIDTH 1000 0
DWIDTH 20 0
BBX 20 40 0 -8
BITMAP
001f00
001f00
001f00
001f00
7ffc00
7ffc00
7ffc00
7ffc00
f07f00
f07f00
f07f00
f07f00
f1ff00
f1ff00
f1ff00
f1ff00
f7df00
f7df00
f7df00
f7df00
ff1f00
ff1f00
ff1f00
ff1f00
fc1f00
fc1f00
fc1f00
fc1f00
7ffc00
7ffc00
7ffc00
7ffc00
f00000
f00000
f00000
f00000
000000
000000
000000
000000
ENDCHAR
STARTCHAR U+0152
ENCODING 338
SWIDTH 1000 0
DWIDTH 20 0
BBX 20 40 0 -8
BITMAP
000000
000000
000000
000000
7fff00
7fff00
7fff00
7fff00
f7c000
f7c000
f7c000
f7c000
f7c000
f7c000
f7c000
f7c000
f7fc00
f7fc00
f7fc00
f7fc00
f7c000
f7c000
f7c000
f7c000
f7c000
f7c000
f7c000
f7c000
7fff00
7fff00
7fff00
7fff00
000000
000000
000000
000000
000000
000000
000000
000000
ENDCHAR
STARTCHAR U+00D6
ENCODING 214
SWIDTH 1000 0
DWIDTH 20 0
BBX 20 40 0 -8
BITMAP
7c7c00
7c7c00
7c7c00
7c7c00
000000
000000
000000
000000
7ffc00
7ffc00
7ffc00
7ffc00
f01f00
f01f00
f01f00
f01f00
f01f00
f01f00
f01f00
f01f00
f01f00
f01f00
f01f00
f01f00
f01f00
f01f00
f01f00
f01f00
7ffc00
7ffc00
7ffc00
7ffc00
000000
000000
000000
000000
000000
000000
000000
000000
ENDCHAR
STARTCHAR U+00D5
ENCODING 213
SWIDTH 1000 0
DWIDTH 20 0
BBX 20 40 0 -8
BITMAP
7f7c00
7f7c00
7f7c00
7f7c00
f7f000
f7f000
f7f000
f7f000
7ffc00
7ffc00
7ffc00
7ffc00
f01f00
f01f00
f01f00
f01f00
f01f00
f01f00
f01f00
f01f00
f01f00
f01f00
f01f00
f01f00
f01f00
f01f00
f01f00
f01f00
7ffc00
7ffc00
7ffc00
7ffc00
000000
000000
000000
000000
000000
000000
000000
000000
ENDCHAR
STARTCHAR U+00D4
ENCODING 212
SWIDTH 1000 0
DWIDTH 20 0
BBX 20 40 0 -8
BITMAP
1ff000
1ff000
1ff000
1ff000
7c7c00
7c7c00
7c7c00
7c7c00
7ffc00
7ffc00
7ffc00
7ffc00
f01f00
f01f00
f01f00
f01f00
f01f00
f01f00
f01f00
f01f00
f01f00
f01f00
f01f00
f01f00
f01f00
f01f00
f01f00
f01f00
7ffc00
7ffc00
7ffc00
7ffc00
000000
000000
000000
000000
000000
000000
000000
000000
ENDCHAR
STARTCHAR U+00D3
ENCODING 211
SWIDTH 1000 0
DWIDTH 20 0
BBX 20 40 0 -8
BITMAP
07f000
07f000
07f000
07f000
7f0000
7f0000
7f0000
7f0000
7ffc00
7ffc00
7ffc00
7ffc00
f01f00
f01f00
f01f00
f01f00
f01f00
f01f00
f01f00
f01f00
f01f00
f01f00
f01f00
f01f00
f01f00
f01f00
f01f00
f01f00
7ffc00
7ffc00
7ffc00
7ffc00
000000
000000
000000
000000
000000
000000
000000
000000
ENDCHAR
STARTCHAR U+00D2
ENCODING 210
SWIDTH 1000 0
DWIDTH 20 0
BBX 20 40 0 -8
BITMAP
1fc000
1fc000
1fc000
1fc000
01fc00
01fc00
01fc00
01fc00
7ffc00
7ffc00
7ffc00
7ffc00
f01f00
f01f00
f01f00
f01f00
f01f00
f01f00
f01f00
f01f00
f01f00
f01f00
f01f00
f01f00
f01f00
f01f00
f01f00
f01f00
7ffc00
7ffc00
7ffc00
7ffc00
000000
000000
000000
000000
000000
000000
000000
000000
ENDCHAR
STARTCHAR U+00D1
ENCODING 209
SWIDTH 1000 0
DWIDTH 20 0
BBX 20 40 0 -8
BITMAP
1fdf00
1fdf00
1fdf00
1fdf00
7dfc00
7dfc00
7dfc00
7dfc00
fc1f00
fc1f00
fc1f00
fc1f00
ff1f00
ff1f00
ff1f00
ff1f00
f7df00
f7df00
f7df00
f7df00
f1ff00
f1ff00
f1ff00
f1ff00
f07f00
f07f00
f07f00
f07f00
f01f00
f01f00
f01f00
f01f00
000000
000000
000000
000000
000000
000000
000000
000000
ENDCHAR
STARTCHAR U+00D0
ENCODING 208
SWIDTH 1000 0
DWIDTH 20 0
BBX 20 40 0 -8
BITMAP
000000
000000
000000
000000
fff000
fff000
fff000
fff000
7c7c00
7c7c00
7c7c00
7c7c00
7c1f00
7c1f00
7c1f00
7c1f00
ffdf00
ffdf00
ffdf00
ffdf00
7c1f00
7c1f00
7c1f00
7c1f00
7c7c00
7c7c00
7c7c00
7c7c00
fff000
fff000
fff000
fff000
000000
000000
000000
000000
000000
000000
000000
000000
ENDCHAR
STARTCHAR U+00CF
ENCODING 207
SWIDTH 1000 0
DWIDTH 20 0
BBX 20 40 0 -8
BITMAP
7c7c00
7c7c00
7c7c00
7c7c00
000000
000000
000000
000000
7ffc00
7ffc00
7ffc00
7ffc00
07c000
07c000
07c000
07c000
07c000
07c000
07c000
07c000
07c000
07c000
07c000
07c000
07c000
07c000
07c000
07c000
7ffc00
7ffc00
7ffc00
7ffc00
000000
000000
000000
000000
000000
000000
000000
000000
ENDCHAR
STARTCHAR U+00CE
ENCODING 206
SWIDTH 1000 0
DWIDTH 20 0
BBX 20 40 0 -8
BITMAP
1ff000
1ff000
1ff000
1ff000
7c7c00
7c7c00
7c7c00
7c7c00
7ffc00
7ffc00
7ffc00
7ffc00
07c000
07c000
07c000
07c000
07c000
07c000
07c000
07c000
07c000
07c000
07c000
07c000
07c000
07c000
07c000
07c000
7ffc00
7ffc00
7ffc00
7ffc00
000000
000000
000000
000000
000000
000000
000000
000000
ENDCHAR
STARTCHAR U+00CD
ENCODING 205
SWIDTH 1000 0
DWIDTH 20 0
BBX 20 40 0 -8
BITMAP
07f000
07f000
07f000
07f000
7f0000
7f0000
7f0000
7f0000
7ffc00
7ffc00
7ffc00
7ffc00
07c000
07c000
07c000
07c000
07c000
07c000
07c000
07c000
07c000
07c000
07c000
07c000
07c000
07c000
07c000
07c000
7ffc00
7ffc00
7ffc00
7ffc00
000000
000000
000000
000000
000000
000000
000000
000000
ENDCHAR
STARTCHAR U+00CC
ENCODING 204
SWIDTH 1000 0
DWIDTH 20 0
BBX 20 40 0 -8
BITMAP
1fc000
1fc000
1fc000
1fc000
01fc00
01fc00
01fc00
01fc00
7ffc00
7ffc00
7ffc00
7ffc00
07c000
07c000
07c000
07c000
07c000
07c000
07c000
07c000
07c000
07c000
07c000
07c000
07c000
07c000
07c000
07c000
7ffc00
7ffc00
7ffc00
7ffc00
000000
000000
000000
000000
000000
000000
000000
000000
ENDCHAR
STARTCHAR U+00CB
ENCODING 203
SWIDTH 1000 0
DWIDTH 20 0
BBX 20 40 0 -8
BITMAP
7c7c00
7c7c00
7c7c00
7c7c00
000000
000000
000000
000000
ffff00
ffff00
ffff00
ffff00
f00000
f00000
f00000
f00000
fff000
fff000
fff000
fff000
f00000
f00000
f00000
f00000
f00000
f00000
f00000
f00000
ffff00
ffff00
ffff00
ffff00
000000
000000
000000
000000
000000
000000
000000
000000
ENDCHAR
STARTCHAR U+00CA
ENCODING 202
SWIDTH 1000 0
DWIDTH 20 0
BBX 20 40 0 -8
BITMAP
1ff000
1ff000
1ff000
1ff000
7c7c00
7c7c00
7c7c00
7c7c00
ffff00
ffff00
ffff00
ffff00
f00000
f00000
f00000
f00000
ffc000
ffc000
ffc000
ffc000
f00000
f00000
f00000
f00000
f00000
f00000
f00000
f00000
ffff00
ffff00
ffff00
ffff00
000000
000000
000000
000000
000000
000000
000000
000000
ENDCHAR
STARTCHAR U+00C9
ENCODING 201
SWIDTH 1000 0
DWIDTH 20 0
BBX 20 40 0 -8
BITMAP
01fc00
01fc00
01fc00
01fc00
1fc000
1fc000
1fc000
1fc000
ffff00
ffff00
ffff00
ffff00
f00000
f00000
f00000
f00000
fff000
fff000
fff000
fff000
f00000
f00000
f00000
f00000
f00000
f00000
f00000
f00000
ffff00
ffff00
ffff00
ffff00
000000
000000
000000
000000
000000
000000
000000
000000
ENDCHAR
STARTCHAR U+00C8
ENCODING 200
SWIDTH 1000 0
DWIDTH 20 0
BBX 20 40 0 -8
BITMAP
7f0000
7f0000
7f0000
7f0000
07f000
07f000
07f000
07f000
ffff00
ffff00
ffff00
ffff00
f00000
f00000
f00000
f00000
fff000
fff000
fff000
fff000
f00000
f00000
f00000
f00000
f00000
f00000
f00000
f00000
ffff00
ffff00
ffff00
ffff00
000000
000000
000000
000000
000000
000000
000000
000000
ENDCHAR
STARTCHAR U+00C7
ENCODING 199
SWIDTH 1000 0
DWIDTH 20 0
BBX 20 40 0 -8
BITMAP
000000
000000
000000
000000
1ffc00
1ffc00
1ffc00
1ffc00
7c1f00
7c1f00
7c1f00
7c1f00
f00000
f00000
f00000
f00000
f00000
f00000
f00000
f00000
f00000
f00000
f00000
f00000
7c1f00
7c1f00
7c1f00
7c1f00
1ffc00
1ffc00
1ffc00
1ffc00
01f000
01f000
01f000
01f000
1ff000
1ff000
1ff000
1ff000
ENDCHAR
STARTCHAR U+00C6
ENCODING 198
SWIDTH 1000 0
DWIDTH 20 0
BBX 20 40 0 -8
BITMAP
000000
000000
000000
000000
1fff00
1fff00
1fff00
1fff00
7fc000
7fc000
7fc000
7fc000
f7c000
f7c000
f7c000
f7c000
f7fc00
f7fc00
f7fc00
f7fc00
ffc000
ffc000
ffc000
ffc000
f7c000
f7c000
f7c000
f7c000
f7ff00
f7ff00
f7ff00
f7ff00
000000
000000
000000
000000
000000
000000
000000
000000
ENDCHAR
STARTCHAR U+00C5
ENCODING 197
SWIDTH 1000 0
DWIDTH 20 0
BBX 20 40 0 -8
BITMAP
1ff000
1ff000
1ff000
1ff000
7c7c00
7c7c00
7c7c00
7c7c00
1ff000
1ff000
1ff000
1ff000
1ff000
1ff000
1ff000
1ff000
7c7c00
7c7c00
7c7c00
7c7c00
ffff00
ffff00
ffff00
ffff00
f01f00
f01f00
f01f00
f01f00
f01f00
f01f00
f01f00
f01f00
000000
000000
000000
000000
000000
000000
000000
000000
ENDCHAR
STARTCHAR U+00C4
ENCODING 196
SWIDTH 1000 0
DWIDTH 20 0
BBX 20 40 0 -8
BITMAP
7c7c00
7c7c00
7c7c00
7c7c00
000000
000000
000000
000000
07c000
07c000
07c000
07c000
1ff000
1ff000
1ff000
1ff000
7c7c00
7c7c00
7c7c00
7c7c00
ffff00
ffff00
ffff00
ffff00
f01f00
f01f00
f01f00
f01f00
f01f00
f01f00
f01f00
f01f00
000000
000000
000000
000000
000000
000000
000000
000000
ENDCHAR
STARTCHAR U+00C3
ENCODING 195
SWIDTH 1000 0
DWIDTH 20 0
BBX 20 40 0 -8
BITMAP
1fdf00
1fdf00
1fdf00
1fdf00
7dfc00
7dfc00
7dfc00
7dfc00
07c000
07c000
07c000
07c000
1ff000
1ff000
1ff000
1ff000
7c7c00
7c7c00
7c7c00
7c7c00
ffff00
ffff00
ffff00
ffff00
f01f00
f01f00
f01f00
f01f00
f01f00
f01f00
f01f00
f01f00
000000
000000
000000
000000
000000
000000
000000
000000
ENDCHAR
STARTCHAR U+00C2
ENCODING 194
SWIDTH 1000 0
DWIDTH 20 0
BBX 20 40 0 -8
BITMAP
1ff000
1ff000
1ff000
1ff000
7c7c00
7c7c00
7c7c00
7c7c00
07c000
07c000
07c000
07c000
1ff000
1ff000
1ff000
1ff000
7c7c00
7c7c00
7c7c00
7c7c00
ffff00
ffff00
ffff00
ffff00
f01f00
f01f00
f01f00
f01f00
f01f00
f01f00
f01f00
f01f00
000000
000000
000000
000000
000000
000000
000000
000000
ENDCHAR
STARTCHAR U+00C1
ENCODING 193
SWIDTH 1000 0
DWIDTH 20 0
BBX 20 40 0 -8
BITMAP
07f000
07f000
07f000
07f000
7f0000
7f0000
7f0000
7f0000
07c000
07c000
07c000
07c000
1ff000
1ff000
1ff000
1ff000
7c7c00
7c7c00
7c7c00
7c7c00
ffff00
ffff00
ffff00
ffff00
f01f00
f01f00
f01f00
f01f00
f01f00
f01f00
f01f00
f01f00
000000
000000
000000
000000
000000
000000
000000
000000
ENDCHAR
STARTCHAR U+00C0
ENCODING 192
SWIDTH 1000 0
DWIDTH 20 0
BBX 20 40 0 -8
BITMAP
1fc000
1fc000
1fc000
1fc000
01fc00
01fc00
01fc00
01fc00
07c000
07c000
07c000
07c000
1ff000
1ff000
1ff000
1ff000
7c7c00
7c7c00
7c7c00
7c7c00
ffff00
ffff00
ffff00
ffff00
f01f00
f01f00
f01f00
f01f00
f01f00
f01f00
f01f00
f01f00
000000
000000
000000
000000
000000
000000
000000
000000
ENDCHAR
STARTCHAR U+00BF
ENCODING 191
SWIDTH 1000 0
DWIDTH 20 0
BBX 20 40 0 -8
BITMAP
000000
000000
000000
000000
07c000
07c000
07c000
07c000
000000
000000
000000
000000
07c000
07c000
07c000
07c000
07c000
07c000
07c000
07c000
7f0000
7f0000
7f0000
7f0000
f01f00
f01f00
f01f00
f01f00
7ffc00
7ffc00
7ffc00
7ffc00
000000
000000
000000
000000
000000
000000
000000
000000
ENDCHAR
STARTCHAR U+00BE
ENCODING 190
SWIDTH 1000 0
DWIDTH 20 0
BBX 20 40 0 -8
BITMAP
ffc000
ffc000
ffc000
ffc000
07c000
07c000
07c000
07c000
7f7c00
7f7c00
7f7c00
7f7c00
07f000
07f000
07f000
07f000
ffc000
ffc000
ffc000
ffc000
1f7c00
1f7c00
1f7c00
1f7c00
7dfc00
7dfc00
7dfc00
7dfc00
f7fc00
f7fc00
f7fc00
f7fc00
1fff00
1fff00
1fff00
1fff00
007c00
007c00
007c00
007c00
ENDCHAR
STARTCHAR U+00BD
ENCODING 189
SWIDTH 1000 0
DWIDTH 20 0
BBX 20 40 0 -8
BITMAP
000000
000000
000000
000000
7c0000
7c0000
7c0000
7c0000
fc7c00
fc7c00
fc7c00
fc7c00
7df000
7df000
7df000
7df000
7fc000
7fc000
7fc000
7fc000
1ffc00
1ffc00
1ffc00
1ffc00
7fdf00
7fdf00
7fdf00
7fdf00
f07c00
f07c00
f07c00
f07c00
01f000
01f000
01f000
01f000
07ff00
07ff00
07ff00
07ff00
ENDCHAR
STARTCHAR U+00BC
ENCODING 188
SWIDTH 1000 0
DWIDTH 20 0
BBX 20 40 0 -8
BITMAP
000000
000000
000000
000000
7c0000
7c0000
7c0000
7c0000
fc7c00
fc7c00
fc7c00
fc7c00
7df000
7df000
7df000
7df000
7fc000
7fc000
7fc000
7fc000
1f7c00
1f7c00
1f7c00
1f7c00
7dfc00
7dfc00
7dfc00
7dfc00
f7fc00
f7fc00
f7fc00
f7fc00
1fff00
1fff00
1fff00
1fff00
007c00
007c00
007c00
007c00
ENDCHAR
STARTCHAR U+00BB
ENCODING 187
SWIDTH 1000 0
DWIDTH 20 0
BBX 20 40 0 -8
BITMAP
000000
000000
000000
000000
f7c000
f7c000
f7c000
f7c000
7df000
7df000
7df000
7df000
1f7c00
1f7c00
1f7c00
1f7c00
07df00
07df00
07df00
07df00
1f7c00
1f7c00
1f7c00
1f7c00
7df000
7df000
7df000
7df000
f7c000
f7c000
f7c000
f7c000
000000
000000
000000
000000
000000
000000
000000
000000
ENDCHAR
STARTCHAR U+00BA
ENCODING 186
SWIDTH 1000 0
DWIDTH 20 0
BBX 20 40 0 -8
BITMAP
000000
000000
000000
000000
7ffc00
7ffc00
7ffc00
7ffc00
f01f00
f01f00
f01f00
f01f00
f01f00
f01f00
f01f00
f01f00
f01f00
f01f00
f01f00
f01f00
7ffc00
7ffc00
7ffc00
7ffc00
000000
000000
000000
000000
ffff00
ffff00
ffff00
ffff00
000000
000000
000000
000000
000000
000000
000000
000000
ENDCHAR
STARTCHAR U+00B9
ENCODING 185
SWIDTH 1000 0
DWIDTH 20 0
BBX 20 40 0 -8
BITMAP
07c000
07c000
07c000
07c000
1fc000
1fc000
1fc000
1fc000
07c000
07c000
07c000
07c000
07c000
07c000
07c000
07c000
1ff000
1ff000
1ff000
1ff000
000000
000000
000000
000000
000000
000000
000000
000000
000000
000000
000000
000000
000000
000000
000000
000000
000000
000000
000000
000000
ENDCHAR
STARTCHAR U+00B8
ENCODING 184
SWIDTH 1000 0
DWIDTH 20 0
BBX 20 40 0 -8
BITMAP
000000
000000
000000
000000
000000
000000
000000
000000
000000
000000
000000
000000
000000
000000
000000
000000
000000
000000
000000
000000
000000
000000
000000
000000
000000
000000
000000
000000
000000
000000
000000
000000
01f000
01f000
01f000
01f000
1ff000
1ff000
1ff000
1ff000
ENDCHAR
STARTCHAR U+2022
ENCODING 8226
SWIDTH 1000 0
DWIDTH 20 0
BBX 20 40 0 -8
BITMAP
000000
000000
000000
000000
000000
000000
000000
000000
000000
000000
000000
000000
1fc000
1fc000
1fc000
1fc000
1fc000
1fc000
1fc000
1fc000
000000
000000
000000
000000
000000
000000
000000
000000
000000
000000
000000
000000
000000
000000
000000
000000
000000
000000
000000
000000
ENDCHAR
STARTCHAR U+00B6
ENCODING 182
SWIDTH 1000 0
DWIDTH 20 0
BBX 20 40 0 -8
BITMAP
000000
000000
000000
000000
7fff00
7fff00
7fff00
7fff00
fdff00
fdff00
fdff00
fdff00
fdff00
fdff00
fdff00
fdff00
7fff00
7fff00
7fff00
7fff00
01ff00
01ff00
01ff00
01ff00
01ff00
01ff00
01ff00
01ff00
01ff00
01ff00
01ff00
01ff00
000000
000000
000000
000000
000000
000000
000000
000000
ENDCHAR
STARTCHAR U+00B5
ENCODING 181
SWIDTH 1000 0
DWIDTH 20 0
BBX 20 40 0 -8
BITMAP
000000
000000
000000
000000
000000
000000
000000
000000
000000
000000
000000
000000
7c1f00
7c1f00
7c1f00
7c1f00
7c1f00
7c1f00
7c1f00
7c1f00
7c1f00
7c1f00
7c1f00
7c1f00
7f7f00
7f7f00
7f7f00
7f7f00
7fff00
7fff00
7fff00
7fff00
7c0000
7c0000
7c0000
7c0000
f00000
f00000
f00000
f00000
ENDCHAR
STARTCHAR U+00B4
ENCODING 180
SWIDTH 1000 0
DWIDTH 20 0
BBX 20 40 0 -8
BITMAP
000000
000000
000000
000000
01fc00
01fc00
01fc00
01fc00
01f000
01f000
01f000
01f000
07c000
07c000
07c000
07c000
000000
000000
000000
000000
000000
000000
000000
000000
000000
000000
000000
000000
000000
000000
000000
000000
000000
000000
000000
000000
000000
000000
000000
000000
ENDCHAR
STARTCHAR U+00B3
ENCODING 179
SWIDTH 1000 0
DWIDTH 20 0
BBX 20 40 0 -8
BITMAP
7ffc00
7ffc00
7ffc00
7ffc00
007c00
007c00
007c00
007c00
07f000
07f000
07f000
07f000
007c00
007c00
007c00
007c00
7ff000
7ff000
7ff000
7ff000
000000
000000
000000
000000
000000
000000
000000
000000
000000
000000
000000
000000
000000
000000
000000
000000
000000
000000
000000
000000
ENDCHAR
STARTCHAR U+00B2
ENCODING 178
SWIDTH 1000 0
DWIDTH 20 0
BBX 20 40 0 -8
BITMAP
1ff000
1ff000
1ff000
1ff000
7c7c00
7c7c00
7c7c00
7c7c00
07f000
07f000
07f000
07f000
1f0000
1f0000
1f0000
1f0000
7ffc00
7ffc00
7ffc00
7ffc00
000000
000000
000000
000000
000000
000000
000000
000000
000000
000000
000000
000000
000000
000000
000000
000000
000000
000000
000000
000000
ENDCHAR
STARTCHAR U+00AF
ENCODING 175
SWIDTH 1000 0
DWIDTH 20 0
BBX 20 40 0 -8
BITMAP
7ffc00
7ffc00
7ffc00
7ffc00
000000
000000
000000
000000
000000
000000
000000
000000
000000
000000
000000
000000
000000
000000
000000
000000
000000
000000
000000
000000
000000
000000
000000
000000
000000
000000
000000
000000
000000
000000
000000
000000
000000
000000
000000
000000
ENDCHAR
STARTCHAR U+00AE
ENCODING 174
SWIDTH 1000 0
DWIDTH 20 0
BBX 20 40 0 -8
BITMAP
000000
000000
000000
000000
1ff000
1ff000
1ff000
1ff000
7c7c00
7c7c00
7c7c00
7c7c00
ffff00
ffff00
ffff00
ffff00
ff7f00
ff7f00
ff7f00
ff7f00
ffff00
ffff00
ffff00
ffff00
ffdf00
ffdf00
ffdf00
ffdf00
7ffc00
7ffc00
7ffc00
7ffc00
1ff000
1ff000
1ff000
1ff000
000000
000000
000000
000000
ENDCHAR
STARTCHAR U+00D7
ENCODING 215
SWIDTH 1000 0
DWIDTH 20 0
BBX 20 40 0 -8
BITMAP
000000
000000
000000
000000
000000
000000
000000
000000
7c7c00
7c7c00
7c7c00
7c7c00
1ff000
1ff000
1ff000
1ff000
07c000
07c000
07c000
07c000
1ff000
1ff000
1ff000
1ff000
7c7c00
7c7c00
7c7c00
7c7c00
000000
000000
000000
000000
000000
000000
000000
000000
000000
000000
000000
000000
ENDCHAR
STARTCHAR U+00AC
ENCODING 172
SWIDTH 1000 0
DWIDTH 20 0
BBX 20 40 0 -8
BITMAP
000000
000000
000000
000000
000000
000000
000000
000000
000000
000000
000000
000000
000000
000000
000000
000000
000000
000000
000000
000000
ffff00
ffff00
ffff00
ffff00
001f00
001f00
001f00
001f00
001f00
001f00
001f00
001f00
000000
000000
000000
000000
000000
000000
000000
000000
ENDCHAR
STARTCHAR U+00AB
ENCODING 171
SWIDTH 1000 0
DWIDTH 20 0
BBX 20 40 0 -8
BITMAP
000000
000000
000000
000000
07df00
07df00
07df00
07df00
1f7c00
1f7c00
1f7c00
1f7c00
7df000
7df000
7df000
7df000
f7c000
f7c000
f7c000
f7c000
7df000
7df000
7df000
7df000
1f7c00
1f7c00
1f7c00
1f7c00
07df00
07df00
07df00
07df00
000000
000000
000000
000000
000000
000000
000000
000000
ENDCHAR
STARTCHAR U+00AA
ENCODING 170
SWIDTH 1000 0
DWIDTH 20 0
BBX 20 40 0 -8
BITMAP
000000
000000
000000
000000
7ffc00
7ffc00
7ffc00
7ffc00
001f00
001f00
001f00
001f00
7fff00
7fff00
7fff00
7fff00
f07f00
f07f00
f07f00
f07f00
7fff00
7fff00
7fff00
7fff00
000000
000000
000000
000000
ffff00
ffff00
ffff00
ffff00
000000
000000
000000
000000
000000
000000
000000
000000
ENDCHAR
STARTCHAR U+00A9
ENCODING 169
SWIDTH 1000 0
DWIDTH 20 0
BBX 20 40 0 -8
BITMAP
000000
000000
000000
000000
1ff000
1ff000
1ff000
1ff000
7c7c00
7c7c00
7c7c00
7c7c00
f7ff00
f7ff00
f7ff00
f7ff00
ff1f00
ff1f00
ff1f00
ff1f00
ff1f00
ff1f00
ff1f00
ff1f00
f7ff00
f7ff00
f7ff00
f7ff00
7c7c00
7c7c00
7c7c00
7c7c00
1ff000
1ff000
1ff000
1ff000
000000
000000
000000
000000
ENDCHAR
STARTCHAR U+00A4
ENCODING 164
SWIDTH 1000 0
DWIDTH 20 0
BBX 20 40 0 -8
BITMAP
000000
000000
000000
000000
000000
000000
000000
000000
f01f00
f01f00
f01f00
f01f00
7ffc00
7ffc00
7ffc00
7ffc00
7c7c00
7c7c00
7c7c00
7c7c00
7ffc00
7ffc00
7ffc00
7ffc00
f01f00
f01f00
f01f00
f01f00
000000
000000
000000
000000
000000
000000
000000
000000
000000
000000
000000
000000
ENDCHAR
STARTCHAR U+00A7
ENCODING 167
SWIDTH 1000 0
DWIDTH 20 0
BBX 20 40 0 -8
BITMAP
000000
000000
000000
000000
1ffc00
1ffc00
1ffc00
1ffc00
7c0000
7c0000
7c0000
7c0000
1ff000
1ff000
1ff000
1ff000
7c7c00
7c7c00
7c7c00
7c7c00
1ff000
1ff000
1ff000
1ff000
007c00
007c00
007c00
007c00
7ff000
7ff000
7ff000
7ff000
000000
000000
000000
000000
000000
000000
000000
000000
ENDCHAR
STARTCHAR U+00A6
ENCODING 166
SWIDTH 1000 0
DWIDTH 20 0
BBX 20 40 0 -8
BITMAP
000000
000000
000000
000000
07c000
07c000
07c000
07c000
07c000
07c000
07c000
07c000
07c000
07c000
07c000
07c000
000000
000000
000000
000000
07c000
07c000
07c000
07c000
07c000
07c000
07c000
07c000
07c000
07c000
07c000
07c000
000000
000000
000000
000000
000000
000000
000000
000000
ENDCHAR
STARTCHAR U+00A5
ENCODING 165
SWIDTH 1000 0
DWIDTH 20 0
BBX 20 40 0 -8
BITMAP
000000
000000
000000
000000
f01f00
f01f00
f01f00
f01f00
7c7c00
7c7c00
7c7c00
7c7c00
1ff000
1ff000
1ff000
1ff000
07c000
07c000
07c000
07c000
ffff00
ffff00
ffff00
ffff00
07c000
07c000
07c000
07c000
07c000
07c000
07c000
07c000
000000
000000
000000
000000
000000
000000
000000
000000
ENDCHAR
STARTCHAR U+00A8
ENCODING 168
SWIDTH 1000 0
DWIDTH 20 0
BBX 20 40 0 -8
BITMAP
7c7c00
7c7c00
7c7c00
7c7c00
000000
000000
000000
000000
000000
000000
000000
000000
000000
000000
000000
000000
000000
000000
000000
000000
000000
000000
000000
000000
000000
000000
000000
000000
000000
000000
000000
000000
000000
000000
000000
000000
000000
000000
000000
000000
ENDCHAR
STARTCHAR U+00A2
ENCODING 162
SWIDTH 1000 0
DWIDTH 20 0
BBX 20 40 0 -8
BITMAP
000000
000000
000000
000000
000000
000000
000000
000000
07c000
07c000
07c000
07c000
7ffc00
7ffc00
7ffc00
7ffc00
f7df00
f7df00
f7df00
f7df00
f7c000
f7c000
f7c000
f7c000
f7df00
f7df00
f7df00
f7df00
7ffc00
7ffc00
7ffc00
7ffc00
07c000
07c000
07c000
07c000
000000
000000
000000
000000
ENDCHAR
STARTCHAR U+00A1
ENCODING 161
SWIDTH 1000 0
DWIDTH 20 0
BBX 20 40 0 -8
BITMAP
000000
000000
000000
000000
07c000
07c000
07c000
07c000
000000
000000
000000
000000
07c000
07c000
07c000
07c000
07c000
07c000
07c000
07c000
07c000
07c000
07c000
07c000
07c000
07c000
07c000
07c000
07c000
07c000
07c000
07c000
000000
000000
000000
000000
000000
000000
000000
000000
ENDCHAR
STARTCHAR U+201F
ENCODING 8223
SWIDTH 1000 0
DWIDTH 20 0
BBX 20 40 0 -8
BITMAP
000000
000000
000000
000000
7ffc00
7ffc00
7ffc00
7ffc00
7df000
7df000
7df000
7df000
1f7c00
1f7c00
1f7c00
1f7c00
000000
000000
000000
000000
000000
000000
000000
000000
000000
000000
000000
000000
000000
000000
000000
000000
000000
000000
000000
000000
000000
000000
000000
000000
ENDCHAR
STARTCHAR U+201E
ENCODING 8222
SWIDTH 1000 0
DWIDTH 20 0
BBX 20 40 0 -8
BITMAP
000000
000000
000000
000000
000000
000000
000000
000000
000000
000000
000000
000000
000000
000000
000000
000000
000000
000000
000000
000000
000000
000000
000000
000000
000000
000000
000000
000000
7df000
7df000
7df000
7df000
7df000
7df000
7df000
7df000
000000
000000
000000
000000
ENDCHAR
STARTCHAR U+201D
ENCODING 8221
SWIDTH 1000 0
DWIDTH 20 0
BBX 20 40 0 -8
BITMAP
000000
000000
000000
000000
7f7f00
7f7f00
7f7f00
7f7f00
1f1f00
1f1f00
1f1f00
1f1f00
7c7c00
7c7c00
7c7c00
7c7c00
000000
000000
000000
000000
000000
000000
000000
000000
000000
000000
000000
000000
000000
000000
000000
000000
000000
000000
000000
000000
000000
000000
000000
000000
ENDCHAR
STARTCHAR U+201C
ENCODING 8220
SWIDTH 1000 0
DWIDTH 20 0
BBX 20 40 0 -8
BITMAP
000000
000000
000000
000000
1f1f00
1f1f00
1f1f00
1f1f00
7c7c00
7c7c00
7c7c00
7c7c00
7f7f00
7f7f00
7f7f00
7f7f00
000000
000000
000000
000000
000000
000000
000000
000000
000000
000000
000000
000000
000000
000000
000000
000000
000000
000000
000000
000000
000000
000000
000000
000000
ENDCHAR
STARTCHAR U+201B
ENCODING 8219
SWIDTH 1000 0
DWIDTH 20 0
BBX 20 40 0 -8
BITMAP
000000
000000
000000
000000
07c000
07c000
07c000
07c000
07c000
07c000
07c000
07c000
07c000
07c000
07c000
07c000
000000
000000
000000
000000
000000
000000
000000
000000
000000
000000
000000
000000
000000
000000
000000
000000
000000
000000
000000
000000
000000
000000
000000
000000
ENDCHAR
STARTCHAR U+201A
ENCODING 8218
SWIDTH 1000 0
DWIDTH 20 0
BBX 20 40 0 -8
BITMAP
000000
000000
000000
000000
000000
000000
000000
000000
000000
000000
000000
000000
000000
000000
000000
000000
000000
000000
000000
000000
07c000
07c000
07c000
07c000
07c000
07c000
07c000
07c000
07c000
07c000
07c000
07c000
000000
000000
000000
000000
000000
000000
000000
000000
ENDCHAR
STARTCHAR U+2019
ENCODING 8217
SWIDTH 1000 0
DWIDTH 20 0
BBX 20 40 0 -8
BITMAP
000000
000000
000000
000000
7f0000
7f0000
7f0000
7f0000
1f0000
1f0000
1f0000
1f0000
7c0000
7c0000
7c0000
7c0000
000000
000000
000000
000000
000000
000000
000000
000000
000000
000000
000000
000000
000000
000000
000000
000000
000000
000000
000000
000000
000000
000000
000000
000000
ENDCHAR
STARTCHAR U+2018
ENCODING 8216
SWIDTH 1000 0
DWIDTH 20 0
BBX 20 40 0 -8
BITMAP
000000
000000
000000
000000
001f00
001f00
001f00
001f00
007c00
007c00
007c00
007c00
007f00
007f00
007f00
007f00
000000
000000
000000
000000
000000
000000
000000
000000
000000
000000
000000
000000
000000
000000
000000
000000
000000
000000
000000
000000
000000
000000
000000
000000
ENDCHAR
STARTCHAR U+2017
ENCODING 8215
SWIDTH 1000 0
DWIDTH 20 0
BBX 20 40 0 -8
BITMAP
000000
000000
000000
000000
000000
000000
000000
000000
000000
000000
000000
000000
000000
000000
000000
000000
000000
000000
000000
000000
000000
000000
000000
000000
000000
000000
000000
000000
ffff00
ffff00
ffff00
ffff00
000000
000000
000000
000000
ffff00
ffff00
ffff00
ffff00
ENDCHAR
STARTCHAR U+2016
ENCODING 8214
SWIDTH 1000 0
DWIDTH 20 0
BBX 20 40 0 -8
BITMAP
000000
000000
000000
000000
07fc00
07fc00
07fc00
07fc00
07fc00
07fc00
07fc00
07fc00
07fc00
07fc00
07fc00
07fc00
07fc00
07fc00
07fc00
07fc00
07fc00
07fc00
07fc00
07fc00
07fc00
07fc00
07fc00
07fc00
07fc00
07fc00
07fc00
07fc00
000000
000000
000000
000000
000000
000000
000000
000000
ENDCHAR
STARTCHAR U+2015
ENCODING 8213
SWIDTH 1000 0
DWIDTH 20 0
BBX 20 40 0 -8
BITMAP
000000
000000
000000
000000
000000
000000
000000
000000
000000
000000
000000
000000
000000
000000
000000
000000
fffff0
fffff0
fffff0
fffff0
000000
000000
000000
000000
000000
000000
000000
000000
000000
000000
000000
000000
000000
000000
000000
000000
000000
000000
000000
000000
ENDCHAR
STARTCHAR U+2014
ENCODING 8212
SWIDTH 1000 0
DWIDTH 20 0
BBX 20 40 0 -8
BITMAP
000000
000000
000000
000000
000000
000000
000000
000000
000000
000000
000000
000000
000000
000000
000000
000000
ffff00
ffff00
ffff00
ffff00
000000
000000
000000
000000
000000
000000
000000
000000
000000
000000
000000
000000
000000
000000
000000
000000
000000
000000
000000
000000
ENDCHAR
STARTCHAR U+2013
ENCODING 8211
SWIDTH 1000 0
DWIDTH 20 0
BBX 20 40 0 -8
BITMAP
000000
000000
000000
000000
000000
000000
000000
000000
000000
000000
000000
000000
000000
000000
000000
000000
1ffc00
1ffc00
1ffc00
1ffc00
000000
000000
000000
000000
000000
000000
000000
000000
000000
000000
000000
000000
000000
000000
000000
000000
000000
000000
000000
000000
ENDCHAR
STARTCHAR U+2012
ENCODING 8210
SWIDTH 1000 0
DWIDTH 20 0
BBX 20 40 0 -8
BITMAP
000000
000000
000000
000000
000000
000000
000000
000000
000000
000000
000000
000000
000000
000000
000000
000000
7ffc00
7ffc00
7ffc00
7ffc00
000000
000000
000000
000000
000000
000000
000000
000000
000000
000000
000000
000000
000000
000000
000000
000000
000000
000000
000000
000000
ENDCHAR
STARTCHAR U+2011
ENCODING 8209
SWIDTH 1000 0
DWIDTH 20 0
BBX 20 40 0 -8
BITMAP
000000
000000
000000
000000
000000
000000
000000
000000
000000
000000
000000
000000
000000
000000
000000
000000
1ff000
1ff000
1ff000
1ff000
000000
000000
000000
000000
000000
000000
000000
000000
000000
000000
000000
000000
000000
000000
000000
000000
000000
000000
000000
000000
ENDCHAR
STARTCHAR U+2010
ENCODING 8208
SWIDTH 1000 0
DWIDTH 20 0
BBX 20 40 0 -8
BITMAP
000000
000000
000000
000000
000000
000000
000000
000000
000000
000000
000000
000000
000000
000000
000000
000000
1ff000
1ff000
1ff000
1ff000
000000
000000
000000
000000
000000
000000
000000
000000
000000
000000
000000
000000
000000
000000
000000
000000
000000
000000
000000
000000
ENDCHAR
STARTCHAR U+007F
ENCODING 127
SWIDTH 1000 0
DWIDTH 20 0
BBX 20 40 0 -8
BITMAP
000000
000000
000000
000000
ff0000
ff0000
ff0000
ff0000
f7c000
f7c000
f7c000
f7c000
f7c000
f7c000
f7c000
f7c000
f7c000
f7c000
f7c000
f7c000
fff000
fff000
fff000
fff000
1f0000
1f0000
1f0000
1f0000
1f0000
1f0000
1f0000
1f0000
1f0000
1f0000
1f0000
1f0000
1f0000
1f0000
1f0000
1f0000
ENDCHAR
STARTCHAR U+007E
ENCODING 126
SWIDTH 1000 0
DWIDTH 20 0
BBX 20 40 0 -8
BITMAP
000000
000000
000000
000000
7f1f00
7f1f00
7f1f00
7f1f00
f7df00
f7df00
f7df00
f7df00
f1fc00
f1fc00
f1fc00
f1fc00
000000
000000
000000
000000
000000
000000
000000
000000
000000
000000
000000
000000
000000
000000
000000
000000
000000
000000
000000
000000
000000
000000
000000
000000
ENDCHAR
STARTCHAR U+007D
ENCODING 125
SWIDTH 1000 0
DWIDTH 20 0
BBX 20 40 0 -8
BITMAP
000000
000000
000000
000000
ff0000
ff0000
ff0000
ff0000
07c000
07c000
07c000
07c000
1f0000
1f0000
1f0000
1f0000
07f000
07f000
07f000
07f000
1f0000
1f0000
1f0000
1f0000
07c000
07c000
07c000
07c000
ff0000
ff0000
ff0000
ff0000
000000
000000
000000
000000
000000
000000
000000
000000
ENDCHAR
STARTCHAR U+007C
ENCODING 124
SWIDTH 1000 0
DWIDTH 20 0
BBX 20 40 0 -8
BITMAP
000000
000000
000000
000000
07c000
07c000
07c000
07c000
07c000
07c000
07c000
07c000
07c000
07c000
07c000
07c000
07c000
07c000
07c000
07c000
07c000
07c000
07c000
07c000
07c000
07c000
07c000
07c000
07c000
07c000
07c000
07c000
000000
000000
000000
000000
000000
000000
000000
000000
ENDCHAR
STARTCHAR U+007B
ENCODING 123
SWIDTH 1000 0
DWIDTH 20 0
BBX 20 40 0 -8
BITMAP
000000
000000
000000
000000
01ff00
01ff00
01ff00
01ff00
07c000
07c000
07c000
07c000
01f000
01f000
01f000
01f000
1fc000
1fc000
1fc000
1fc000
01f000
01f000
01f000
01f000
07c000
07c000
07c000
07c000
01ff00
01ff00
01ff00
01ff00
000000
000000
000000
000000
000000
000000
000000
000000
ENDCHAR
STARTCHAR U+007A
ENCODING 122
SWIDTH 1000 0
DWIDTH 20 0
BBX 20 40 0 -8
BITMAP
000000
000000
000000
000000
000000
000000
000000
000000
000000
000000
000000
000000
ffff00
ffff00
ffff00
ffff00
007c00
007c00
007c00
007c00
07f000
07f000
07f000
07f000
1f0000
1f0000
1f0000
1f0000
ffff00
ffff00
ffff00
ffff00
000000
000000
000000
000000
000000
000000
000000
000000
ENDCHAR
STARTCHAR U+0079
ENCODING 121
SWIDTH 1000 0
DWIDTH 20 0
BBX 20 40 0 -8
BITMAP
000000
000000
000000
000000
000000
000000
000000
000000
000000
000000
000000
000000
f07c00
f07c00
f07c00
f07c00
f07c00
f07c00
f07c00
f07c00
f1fc00
f1fc00
f1fc00
f1fc00
7ffc00
7ffc00
7ffc00
7ffc00
007c00
007c00
007c00
007c00
f07c00
f07c00
f07c00
f07c00
7ff000
7ff000
7ff000
7ff000
ENDCHAR
STARTCHAR U+0078
ENCODING 120
SWIDTH 1000 0
DWIDTH 20 0
BBX 20 40 0 -8
BITMAP
000000
000000
000000
000000
000000
000000
000000
000000
000000
000000
000000
000000
f07c00
f07c00
f07c00
f07c00
7df000
7df000
7df000
7df000
1fc000
1fc000
1fc000
1fc000
7df000
7df000
7df000
7df000
f07c00
f07c00
f07c00
f07c00
000000
000000
000000
000000
000000
000000
000000
000000
ENDCHAR
STARTCHAR U+0077
ENCODING 119
SWIDTH 1000 0
DWIDTH 20 0
BBX 20 40 0 -8
BITMAP
000000
000000
000000
000000
000000
000000
000000
000000
000000
000000
000000
000000
f01f00
f01f00
f01f00
f01f00
f01f00
f01f00
f01f00
f01f00
f7df00
f7df00
f7df00
f7df00
ffff00
ffff00
ffff00
ffff00
7c7c00
7c7c00
7c7c00
7c7c00
000000
000000
000000
000000
000000
000000
000000
000000
ENDCHAR
STARTCHAR U+0076
ENCODING 118
SWIDTH 1000 0
DWIDTH 20 0
BBX 20 40 0 -8
BITMAP
000000
000000
000000
000000
000000
000000
000000
000000
000000
000000
000000
000000
f01f00
f01f00
f01f00
f01f00
f01f00
f01f00
f01f00
f01f00
7c7c00
7c7c00
7c7c00
7c7c00
1ff000
1ff000
1ff000
1ff000
07c000
07c000
07c000
07c000
000000
000000
000000
000000
000000
000000
000000
000000
ENDCHAR
STARTCHAR U+0075
ENCODING 117
SWIDTH 1000 0
DWIDTH 20 0
BBX 20 40 0 -8
BITMAP
000000
000000
000000
000000
000000
000000
000000
000000
000000
000000
000000
000000
f07c00
f07c00
f07c00
f07c00
f07c00
f07c00
f07c00
f07c00
f07c00
f07c00
f07c00
f07c00
f07c00
f07c00
f07c00
f07c00
7fff00
7fff00
7fff00
7fff00
000000
000000
000000
000000
000000
000000
000000
000000
ENDCHAR
STARTCHAR U+0074
ENCODING 116
SWIDTH 1000 0
DWIDTH 20 0
BBX 20 40 0 -8
BITMAP
000000
000000
000000
000000
1f0000
1f0000
1f0000
1f0000
1f0000
1f0000
1f0000
1f0000
fff000
fff000
fff000
fff000
1f0000
1f0000
1f0000
1f0000
1f0000
1f0000
1f0000
1f0000
1f7c00
1f7c00
1f7c00
1f7c00
07f000
07f000
07f000
07f000
000000
000000
000000
000000
000000
000000
000000
000000
ENDCHAR
STARTCHAR U+0073
ENCODING 115
SWIDTH 1000 0
DWIDTH 20 0
BBX 20 40 0 -8
BITMAP
000000
000000
000000
000000
000000
000000
000000
000000
000000
000000
000000
000000
7ffc00
7ffc00
7ffc00
7ffc00
f00000
f00000
f00000
f00000
7ffc00
7ffc00
7ffc00
7ffc00
001f00
001f00
001f00
001f00
fffc00
fffc00
fffc00
fffc00
000000
000000
000000
000000
000000
000000
000000
000000
ENDCHAR
STARTCHAR U+0072
ENCODING 114
SWIDTH 1000 0
DWIDTH 20 0
BBX 20 40 0 -8
BITMAP
000000
000000
000000
000000
000000
000000
000000
000000
000000
000000
000000
000000
f7fc00
f7fc00
f7fc00
f7fc00
7f1f00
7f1f00
7f1f00
7f1f00
7c0000
7c0000
7c0000
7c0000
7c0000
7c0000
7c0000
7c0000
7c0000
7c0000
7c0000
7c0000
000000
000000
000000
000000
000000
000000
000000
000000
ENDCHAR
STARTCHAR U+0071
ENCODING 113
SWIDTH 1000 0
DWIDTH 20 0
BBX 20 40 0 -8
BITMAP
000000
000000
000000
000000
000000
000000
000000
000000
000000
000000
000000
000000
7fff00
7fff00
7fff00
7fff00
f07f00
f07f00
f07f00
f07f00
f07f00
f07f00
f07f00
f07f00
7fff00
7fff00
7fff00
7fff00
001f00
001f00
001f00
001f00
001f00
001f00
001f00
001f00
001f00
001f00
001f00
001f00
ENDCHAR
STARTCHAR U+0070
ENCODING 112
SWIDTH 1000 0
DWIDTH 20 0
BBX 20 40 0 -8
BITMAP
000000
000000
000000
000000
000000
000000
000000
000000
000000
000000
000000
000000
fffc00
fffc00
fffc00
fffc00
fc1f00
fc1f00
fc1f00
fc1f00
fc1f00
fc1f00
fc1f00
fc1f00
fffc00
fffc00
fffc00
fffc00
f00000
f00000
f00000
f00000
f00000
f00000
f00000
f00000
f00000
f00000
f00000
f00000
ENDCHAR
STARTCHAR U+006f
ENCODING 111
SWIDTH 1000 0
DWIDTH 20 0
BBX 20 40 0 -8
BITMAP
000000
000000
000000
000000
000000
000000
000000
000000
000000
000000
000000
000000
7ffc00
7ffc00
7ffc00
7ffc00
f01f00
f01f00
f01f00
f01f00
f01f00
f01f00
f01f00
f01f00
f01f00
f01f00
f01f00
f01f00
7ffc00
7ffc00
7ffc00
7ffc00
000000
000000
000000
000000
000000
000000
000000
000000
ENDCHAR
STARTCHAR U+006e
ENCODING 110
SWIDTH 1000 0
DWIDTH 20 0
BBX 20 40 0 -8
BITMAP
000000
000000
000000
000000
000000
000000
000000
000000
000000
000000
000000
000000
fffc00
fffc00
fffc00
fffc00
fc1f00
fc1f00
fc1f00
fc1f00
f01f00
f01f00
f01f00
f01f00
f01f00
f01f00
f01f00
f01f00
f01f00
f01f00
f01f00
f01f00
000000
000000
000000
000000
000000
000000
000000
000000
ENDCHAR
STARTCHAR U+006d
ENCODING 109
SWIDTH 1000 0
DWIDTH 20 0
BBX 20 40 0 -8
BITMAP
000000
000000
000000
000000
000000
000000
000000
000000
000000
000000
000000
000000
fc7c00
fc7c00
fc7c00
fc7c00
ffff00
ffff00
ffff00
ffff00
f7df00
f7df00
f7df00
f7df00
f7df00
f7df00
f7df00
f7df00
f01f00
f01f00
f01f00
f01f00
000000
000000
000000
000000
000000
000000
000000
000000
ENDCHAR
STARTCHAR U+006c
ENCODING 108
SWIDTH 1000 0
DWIDTH 20 0
BBX 20 40 0 -8
BITMAP
000000
000000
000000
000000
1fc000
1fc000
1fc000
1fc000
07c000
07c000
07c000
07c000
07c000
07c000
07c000
07c000
07c000
07c000
07c000
07c000
07c000
07c000
07c000
07c000
07c000
07c000
07c000
07c000
1ff000
1ff000
1ff000
1ff000
000000
000000
000000
000000
000000
000000
000000
000000
ENDCHAR
STARTCHAR U+006b
ENCODING 107
SWIDTH 1000 0
DWIDTH 20 0
BBX 20 40 0 -8
BITMAP
000000
000000
000000
000000
f00000
f00000
f00000
f00000
f00000
f00000
f00000
f00000
f1f000
f1f000
f1f000
f1f000
f7c000
f7c000
f7c000
f7c000
ff0000
ff0000
ff0000
ff0000
f1f000
f1f000
f1f000
f1f000
f01f00
f01f00
f01f00
f01f00
000000
000000
000000
000000
000000
000000
000000
000000
ENDCHAR
STARTCHAR U+006a
ENCODING 106
SWIDTH 1000 0
DWIDTH 20 0
BBX 20 40 0 -8
BITMAP
000000
000000
000000
000000
007c00
007c00
007c00
007c00
000000
000000
000000
000000
007c00
007c00
007c00
007c00
007c00
007c00
007c00
007c00
007c00
007c00
007c00
007c00
007c00
007c00
007c00
007c00
f07c00
f07c00
f07c00
f07c00
f07c00
f07c00
f07c00
f07c00
7ff000
7ff000
7ff000
7ff000
ENDCHAR
STARTCHAR U+0069
ENCODING 105
SWIDTH 1000 0
DWIDTH 20 0
BBX 20 40 0 -8
BITMAP
000000
000000
000000
000000
07c000
07c000
07c000
07c000
000000
000000
000000
000000
1fc000
1fc000
1fc000
1fc000
07c000
07c000
07c000
07c000
07c000
07c000
07c000
07c000
07c000
07c000
07c000
07c000
7ffc00
7ffc00
7ffc00
7ffc00
000000
000000
000000
000000
000000
000000
000000
000000
ENDCHAR
STARTCHAR U+0068
ENCODING 104
SWIDTH 1000 0
DWIDTH 20 0
BBX 20 40 0 -8
BITMAP
000000
000000
000000
000000
f00000
f00000
f00000
f00000
f00000
f00000
f00000
f00000
fffc00
fffc00
fffc00
fffc00
fc1f00
fc1f00
fc1f00
fc1f00
f01f00
f01f00
f01f00
f01f00
f01f00
f01f00
f01f00
f01f00
f01f00
f01f00
f01f00
f01f00
000000
000000
000000
000000
000000
000000
000000
000000
ENDCHAR
STARTCHAR U+0067
ENCODING 103
SWIDTH 1000 0
DWIDTH 20 0
BBX 20 40 0 -8
BITMAP
000000
000000
000000
000000
000000
000000
000000
000000
000000
000000
000000
000000
7fff00
7fff00
7fff00
7fff00
f07c00
f07c00
f07c00
f07c00
7ff000
7ff000
7ff000
7ff000
f00000
f00000
f00000
f00000
7ffc00
7ffc00
7ffc00
7ffc00
f01f00
f01f00
f01f00
f01f00
7ffc00
7ffc00
7ffc00
7ffc00
ENDCHAR
STARTCHAR U+0066
ENCODING 102
SWIDTH 1000 0
DWIDTH 20 0
BBX 20 40 0 -8
BITMAP
000000
000000
000000
000000
07fc00
07fc00
07fc00
07fc00
1f1f00
1f1f00
1f1f00
1f1f00
1f0000
1f0000
1f0000
1f0000
fff000
fff000
fff000
fff000
1f0000
1f0000
1f0000
1f0000
1f0000
1f0000
1f0000
1f0000
1f0000
1f0000
1f0000
1f0000
000000
000000
000000
000000
000000
000000
000000
000000
ENDCHAR
STARTCHAR U+0065
ENCODING 101
SWIDTH 1000 0
DWIDTH 20 0
BBX 20 40 0 -8
BITMAP
000000
000000
000000
000000
000000
000000
000000
000000
000000
000000
000000
000000
7ffc00
7ffc00
7ffc00
7ffc00
f01f00
f01f00
f01f00
f01f00
ffff00
ffff00
ffff00
ffff00
f00000
f00000
f00000
f00000
7ffc00
7ffc00
7ffc00
7ffc00
000000
000000
000000
000000
000000
000000
000000
000000
ENDCHAR
STARTCHAR U+0064
ENCODING 100
SWIDTH 1000 0
DWIDTH 20 0
BBX 20 40 0 -8
BITMAP
000000
000000
000000
000000
001f00
001f00
001f00
001f00
001f00
001f00
001f00
001f00
7fff00
7fff00
7fff00
7fff00
f07f00
f07f00
f07f00
f07f00
f01f00
f01f00
f01f00
f01f00
f07f00
f07f00
f07f00
f07f00
7fff00
7fff00
7fff00
7fff00
000000
000000
000000
000000
000000
000000
000000
000000
ENDCHAR
STARTCHAR U+0063
ENCODING 99
SWIDTH 1000 0
DWIDTH 20 0
BBX 20 40 0 -8
BITMAP
000000
000000
000000
000000
000000
000000
000000
000000
000000
000000
000000
000000
7ffc00
7ffc00
7ffc00
7ffc00
f01f00
f01f00
f01f00
f01f00
f00000
f00000
f00000
f00000
f00000
f00000
f00000
f00000
7fff00
7fff00
7fff00
7fff00
000000
000000
000000
000000
000000
000000
000000
000000
ENDCHAR
STARTCHAR U+0062
ENCODING 98
SWIDTH 1000 0
DWIDTH 20 0
BBX 20 40 0 -8
BITMAP
000000
000000
000000
000000
f00000
f00000
f00000
f00000
f00000
f00000
f00000
f00000
fffc00
fffc00
fffc00
fffc00
fc1f00
fc1f00
fc1f00
fc1f00
f01f00
f01f00
f01f00
f01f00
fc1f00
fc1f00
fc1f00
fc1f00
fffc00
fffc00
fffc00
fffc00
000000
000000
000000
000000
000000
000000
000000
000000
ENDCHAR
STARTCHAR U+0061
ENCODING 97
SWIDTH 1000 0
DWIDTH 20 0
BBX 20 40 0 -8
BITMAP
000000
000000
000000
000000
000000
000000
000000
000000
000000
000000
000000
000000
7ffc00
7ffc00
7ffc00
7ffc00
001f00
001f00
001f00
001f00
7fff00
7fff00
7fff00
7fff00
f07f00
f07f00
f07f00
f07f00
7fff00
7fff00
7fff00
7fff00
000000
000000
000000
000000
000000
000000
000000
000000
ENDCHAR
STARTCHAR U+0060
ENCODING 96
SWIDTH 1000 0
DWIDTH 20 0
BBX 20 40 0 -8
BITMAP
000000
000000
000000
000000
1fc000
1fc000
1fc000
1fc000
07c000
07c000
07c000
07c000
01f000
01f000
01f000
01f000
000000
000000
000000
000000
000000
000000
000000
000000
000000
000000
000000
000000
000000
000000
000000
000000
000000
000000
000000
000000
000000
000000
000000
000000
ENDCHAR
STARTCHAR U+005F
ENCODING 95
SWIDTH 1000 0
DWIDTH 20 0
BBX 20 40 0 -8
BITMAP
000000
000000
000000
000000
000000
000000
000000
000000
000000
000000
000000
000000
000000
000000
000000
000000
000000
000000
000000
000000
000000
000000
000000
000000
000000
000000
000000
000000
ffff00
ffff00
ffff00
ffff00
000000
000000
000000
000000
000000
000000
000000
000000
ENDCHAR
STARTCHAR U+005E
ENCODING 94
SWIDTH 1000 0
DWIDTH 20 0
BBX 20 40 0 -8
BITMAP
000000
000000
000000
000000
07c000
07c000
07c000
07c000
1ff000
1ff000
1ff000
1ff000
7c7c00
7c7c00
7c7c00
7c7c00
f01f00
f01f00
f01f00
f01f00
000000
000000
000000
000000
000000
000000
000000
000000
000000
000000
000000
000000
000000
000000
000000
000000
000000
000000
000000
000000
ENDCHAR
STARTCHAR U+005D
ENCODING 93
SWIDTH 1000 0
DWIDTH 20 0
BBX 20 40 0 -8
BITMAP
000000
000000
000000
000000
7ff000
7ff000
7ff000
7ff000
01f000
01f000
01f000
01f000
01f000
01f000
01f000
01f000
01f000
01f000
01f000
01f000
01f000
01f000
01f000
01f000
01f000
01f000
01f000
01f000
7ff000
7ff000
7ff000
7ff000
000000
000000
000000
000000
000000
000000
000000
000000
ENDCHAR
STARTCHAR U+005C
ENCODING 92
SWIDTH 1000 0
DWIDTH 20 0
BBX 20 40 0 -8
BITMAP
000000
000000
000000
000000
f00000
f00000
f00000
f00000
7c0000
7c0000
7c0000
7c0000
1f0000
1f0000
1f0000
1f0000
07c000
07c000
07c000
07c000
01f000
01f000
01f000
01f000
007c00
007c00
007c00
007c00
001f00
001f00
001f00
001f00
000000
000000
000000
000000
000000
000000
000000
000000
ENDCHAR
STARTCHAR U+005B
ENCODING 91
SWIDTH 1000 0
DWIDTH 20 0
BBX 20 40 0 -8
BITMAP
000000
000000
000000
000000
1ffc00
1ffc00
1ffc00
1ffc00
1f0000
1f0000
1f0000
1f0000
1f0000
1f0000
1f0000
1f0000
1f0000
1f0000
1f0000
1f0000
1f0000
1f0000
1f0000
1f0000
1f0000
1f0000
1f0000
1f0000
1ffc00
1ffc00
1ffc00
1ffc00
000000
000000
000000
000000
000000
000000
000000
000000
ENDCHAR
STARTCHAR U+005A
ENCODING 90
SWIDTH 1000 0
DWIDTH 20 0
BBX 20 40 0 -8
BITMAP
000000
000000
000000
000000
ffff00
ffff00
ffff00
ffff00
007c00
007c00
007c00
007c00
01f000
01f000
01f000
01f000
07c000
07c000
07c000
07c000
1f0000
1f0000
1f0000
1f0000
7c0000
7c0000
7c0000
7c0000
ffff00
ffff00
ffff00
ffff00
000000
000000
000000
000000
000000
000000
000000
000000
ENDCHAR
STARTCHAR U+0059
ENCODING 89
SWIDTH 1000 0
DWIDTH 20 0
BBX 20 40 0 -8
BITMAP
000000
000000
000000
000000
f01f00
f01f00
f01f00
f01f00
7c7c00
7c7c00
7c7c00
7c7c00
1ff000
1ff000
1ff000
1ff000
07c000
07c000
07c000
07c000
07c000
07c000
07c000
07c000
07c000
07c000
07c000
07c000
07c000
07c000
07c000
07c000
000000
000000
000000
000000
000000
000000
000000
000000
ENDCHAR
STARTCHAR U+0058
ENCODING 88
SWIDTH 1000 0
DWIDTH 20 0
BBX 20 40 0 -8
BITMAP
000000
000000
000000
000000
f01f00
f01f00
f01f00
f01f00
7c7c00
7c7c00
7c7c00
7c7c00
1ff000
1ff000
1ff000
1ff000
07c000
07c000
07c000
07c000
1ff000
1ff000
1ff000
1ff000
7c7c00
7c7c00
7c7c00
7c7c00
f01f00
f01f00
f01f00
f01f00
000000
000000
000000
000000
000000
000000
000000
000000
ENDCHAR
STARTCHAR U+0057
ENCODING 87
SWIDTH 1000 0
DWIDTH 20 0
BBX 20 40 0 -8
BITMAP
000000
000000
000000
000000
f01f00
f01f00
f01f00
f01f00
f01f00
f01f00
f01f00
f01f00
f01f00
f01f00
f01f00
f01f00
f7df00
f7df00
f7df00
f7df00
f7df00
f7df00
f7df00
f7df00
ffff00
ffff00
ffff00
ffff00
7c7c00
7c7c00
7c7c00
7c7c00
000000
000000
000000
000000
000000
000000
000000
000000
ENDCHAR
STARTCHAR U+0056
ENCODING 86
SWIDTH 1000 0
DWIDTH 20 0
BBX 20 40 0 -8
BITMAP
000000
000000
000000
000000
f01f00
f01f00
f01f00
f01f00
f01f00
f01f00
f01f00
f01f00
7c7c00
7c7c00
7c7c00
7c7c00
7c7c00
7c7c00
7c7c00
7c7c00
1ff000
1ff000
1ff000
1ff000
1ff000
1ff000
1ff000
1ff000
07c000
07c000
07c000
07c000
000000
000000
000000
000000
000000
000000
000000
000000
ENDCHAR
STARTCHAR U+0055
ENCODING 85
SWIDTH 1000 0
DWIDTH 20 0
BBX 20 40 0 -8
BITMAP
000000
000000
000000
000000
f01f00
f01f00
f01f00
f01f00
f01f00
f01f00
f01f00
f01f00
f01f00
f01f00
f01f00
f01f00
f01f00
f01f00
f01f00
f01f00
f01f00
f01f00
f01f00
f01f00
f01f00
f01f00
f01f00
f01f00
7ffc00
7ffc00
7ffc00
7ffc00
000000
000000
000000
000000
000000
000000
000000
000000
ENDCHAR
STARTCHAR U+0054
ENCODING 84
SWIDTH 1000 0
DWIDTH 20 0
BBX 20 40 0 -8
BITMAP
000000
000000
000000
000000
ffff00
ffff00
ffff00
ffff00
07c000
07c000
07c000
07c000
07c000
07c000
07c000
07c000
07c000
07c000
07c000
07c000
07c000
07c000
07c000
07c000
07c000
07c000
07c000
07c000
07c000
07c000
07c000
07c000
000000
000000
000000
000000
000000
000000
000000
000000
ENDCHAR
STARTCHAR U+0053
ENCODING 83
SWIDTH 1000 0
DWIDTH 20 0
BBX 20 40 0 -8
BITMAP
000000
000000
000000
000000
7ffc00
7ffc00
7ffc00
7ffc00
f01f00
f01f00
f01f00
f01f00
f00000
f00000
f00000
f00000
7ffc00
7ffc00
7ffc00
7ffc00
001f00
001f00
001f00
001f00
f01f00
f01f00
f01f00
f01f00
7ffc00
7ffc00
7ffc00
7ffc00
000000
000000
000000
000000
000000
000000
000000
000000
ENDCHAR
STARTCHAR U+0052
ENCODING 82
SWIDTH 1000 0
DWIDTH 20 0
BBX 20 40 0 -8
BITMAP
000000
000000
000000
000000
fffc00
fffc00
fffc00
fffc00
f01f00
f01f00
f01f00
f01f00
f01f00
f01f00
f01f00
f01f00
fffc00
fffc00
fffc00
fffc00
f1f000
f1f000
f1f000
f1f000
f07c00
f07c00
f07c00
f07c00
f01f00
f01f00
f01f00
f01f00
000000
000000
000000
000000
000000
000000
000000
000000
ENDCHAR
STARTCHAR U+0051
ENCODING 81
SWIDTH 1000 0
DWIDTH 20 0
BBX 20 40 0 -8
BITMAP
000000
000000
000000
000000
7ffc00
7ffc00
7ffc00
7ffc00
f01f00
f01f00
f01f00
f01f00
f01f00
f01f00
f01f00
f01f00
f01f00
f01f00
f01f00
f01f00
f1ff00
f1ff00
f1ff00
f1ff00
f07c00
f07c00
f07c00
f07c00
7fff00
7fff00
7fff00
7fff00
000000
000000
000000
000000
000000
000000
000000
000000
ENDCHAR
STARTCHAR U+0050
ENCODING 80
SWIDTH 1000 0
DWIDTH 20 0
BBX 20 40 0 -8
BITMAP
000000
000000
000000
000000
fffc00
fffc00
fffc00
fffc00
f01f00
f01f00
f01f00
f01f00
f01f00
f01f00
f01f00
f01f00
fffc00
fffc00
fffc00
fffc00
f00000
f00000
f00000
f00000
f00000
f00000
f00000
f00000
f00000
f00000
f00000
f00000
000000
000000
000000
000000
000000
000000
000000
000000
ENDCHAR
STARTCHAR U+004F
ENCODING 79
SWIDTH 1000 0
DWIDTH 20 0
BBX 20 40 0 -8
BITMAP
000000
000000
000000
000000
7ffc00
7ffc00
7ffc00
7ffc00
f01f00
f01f00
f01f00
f01f00
f01f00
f01f00
f01f00
f01f00
f01f00
f01f00
f01f00
f01f00
f01f00
f01f00
f01f00
f01f00
f01f00
f01f00
f01f00
f01f00
7ffc00
7ffc00
7ffc00
7ffc00
000000
000000
000000
000000
000000
000000
000000
000000
ENDCHAR
STARTCHAR U+004E
ENCODING 78
SWIDTH 1000 0
DWIDTH 20 0
BBX 20 40 0 -8
BITMAP
000000
000000
000000
000000
f01f00
f01f00
f01f00
f01f00
fc1f00
fc1f00
fc1f00
fc1f00
ff1f00
ff1f00
ff1f00
ff1f00
f7df00
f7df00
f7df00
f7df00
f1ff00
f1ff00
f1ff00
f1ff00
f07f00
f07f00
f07f00
f07f00
f01f00
f01f00
f01f00
f01f00
000000
000000
000000
000000
000000
000000
000000
000000
ENDCHAR
STARTCHAR U+004D
ENCODING 77
SWIDTH 1000 0
DWIDTH 20 0
BBX 20 40 0 -8
BITMAP
000000
000000
000000
000000
f01f00
f01f00
f01f00
f01f00
fc7f00
fc7f00
fc7f00
fc7f00
ffff00
ffff00
ffff00
ffff00
f7df00
f7df00
f7df00
f7df00
f01f00
f01f00
f01f00
f01f00
f01f00
f01f00
f01f00
f01f00
f01f00
f01f00
f01f00
f01f00
000000
000000
000000
000000
000000
000000
000000
000000
ENDCHAR
STARTCHAR U+004C
ENCODING 76
SWIDTH 1000 0
DWIDTH 20 0
BBX 20 40 0 -8
BITMAP
000000
000000
000000
000000
f00000
f00000
f00000
f00000
f00000
f00000
f00000
f00000
f00000
f00000
f00000
f00000
f00000
f00000
f00000
f00000
f00000
f00000
f00000
f00000
f00000
f00000
f00000
f00000
ffff00
ffff00
ffff00
ffff00
000000
000000
000000
000000
000000
000000
000000
000000
ENDCHAR
STARTCHAR U+004B
ENCODING 75
SWIDTH 1000 0
DWIDTH 20 0
BBX 20 40 0 -8
BITMAP
000000
000000
000000
000000
f01f00
f01f00
f01f00
f01f00
f1fc00
f1fc00
f1fc00
f1fc00
ffc000
ffc000
ffc000
ffc000
fc0000
fc0000
fc0000
fc0000
ffc000
ffc000
ffc000
ffc000
f1fc00
f1fc00
f1fc00
f1fc00
f01f00
f01f00
f01f00
f01f00
000000
000000
000000
000000
000000
000000
000000
000000
ENDCHAR
STARTCHAR U+004A
ENCODING 74
SWIDTH 1000 0
DWIDTH 20 0
BBX 20 40 0 -8
BITMAP
000000
000000
000000
000000
01ff00
01ff00
01ff00
01ff00
007c00
007c00
007c00
007c00
007c00
007c00
007c00
007c00
007c00
007c00
007c00
007c00
007c00
007c00
007c00
007c00
f07c00
f07c00
f07c00
f07c00
7ff000
7ff000
7ff000
7ff000
000000
000000
000000
000000
000000
000000
000000
000000
ENDCHAR
STARTCHAR U+0049
ENCODING 73
SWIDTH 1000 0
DWIDTH 20 0
BBX 20 40 0 -8
BITMAP
000000
000000
000000
000000
7ffc00
7ffc00
7ffc00
7ffc00
07c000
07c000
07c000
07c000
07c000
07c000
07c000
07c000
07c000
07c000
07c000
07c000
07c000
07c000
07c000
07c000
07c000
07c000
07c000
07c000
7ffc00
7ffc00
7ffc00
7ffc00
000000
000000
000000
000000
000000
000000
000000
000000
ENDCHAR
STARTCHAR U+0048
ENCODING 72
SWIDTH 1000 0
DWIDTH 20 0
BBX 20 40 0 -8
BITMAP
000000
000000
000000
000000
f01f00
f01f00
f01f00
f01f00
f01f00
f01f00
f01f00
f01f00
f01f00
f01f00
f01f00
f01f00
ffff00
ffff00
ffff00
ffff00
f01f00
f01f00
f01f00
f01f00
f01f00
f01f00
f01f00
f01f00
f01f00
f01f00
f01f00
f01f00
000000
000000
000000
000000
000000
000000
000000
000000
ENDCHAR
STARTCHAR U+0047
ENCODING 71
SWIDTH 1000 0
DWIDTH 20 0
BBX 20 40 0 -8
BITMAP
000000
000000
000000
000000
1ffc00
1ffc00
1ffc00
1ffc00
7c1f00
7c1f00
7c1f00
7c1f00
f00000
f00000
f00000
f00000
f00000
f00000
f00000
f00000
f1ff00
f1ff00
f1ff00
f1ff00
7c1f00
7c1f00
7c1f00
7c1f00
1ffc00
1ffc00
1ffc00
1ffc00
000000
000000
000000
000000
000000
000000
000000
000000
ENDCHAR
STARTCHAR U+0046
ENCODING 70
SWIDTH 1000 0
DWIDTH 20 0
BBX 20 40 0 -8
BITMAP
000000
000000
000000
000000
ffff00
ffff00
ffff00
ffff00
f00000
f00000
f00000
f00000
f00000
f00000
f00000
f00000
fff000
fff000
fff000
fff000
f00000
f00000
f00000
f00000
f00000
f00000
f00000
f00000
f00000
f00000
f00000
f00000
000000
000000
000000
000000
000000
000000
000000
000000
ENDCHAR
STARTCHAR U+0045
ENCODING 69
SWIDTH 1000 0
DWIDTH 20 0
BBX 20 40 0 -8
BITMAP
000000
000000
000000
000000
ffff00
ffff00
ffff00
ffff00
f00000
f00000
f00000
f00000
f00000
f00000
f00000
f00000
fff000
fff000
fff000
fff000
f00000
f00000
f00000
f00000
f00000
f00000
f00000
f00000
ffff00
ffff00
ffff00
ffff00
000000
000000
000000
000000
000000
000000
000000
000000
ENDCHAR
STARTCHAR U+0044
ENCODING 68
SWIDTH 1000 0
DWIDTH 20 0
BBX 20 40 0 -8
BITMAP
000000
000000
000000
000000
fff000
fff000
fff000
fff000
7c7c00
7c7c00
7c7c00
7c7c00
7c1f00
7c1f00
7c1f00
7c1f00
7c1f00
7c1f00
7c1f00
7c1f00
7c1f00
7c1f00
7c1f00
7c1f00
7c7c00
7c7c00
7c7c00
7c7c00
fff000
fff000
fff000
fff000
000000
000000
000000
000000
000000
000000
000000
000000
ENDCHAR
STARTCHAR U+0043
ENCODING 67
SWIDTH 1000 0
DWIDTH 20 0
BBX 20 40 0 -8
BITMAP
000000
000000
000000
000000
1ffc00
1ffc00
1ffc00
1ffc00
7c1f00
7c1f00
7c1f00
7c1f00
f00000
f00000
f00000
f00000
f00000
f00000
f00000
f00000
f00000
f00000
f00000
f00000
7c1f00
7c1f00
7c1f00
7c1f00
1ffc00
1ffc00
1ffc00
1ffc00
000000
000000
000000
000000
000000
000000
000000
000000
ENDCHAR
STARTCHAR U+0042
ENCODING 66
SWIDTH 1000 0
DWIDTH 20 0
BBX 20 40 0 -8
BITMAP
000000
000000
000000
000000
fffc00
fffc00
fffc00
fffc00
7c1f00
7c1f00
7c1f00
7c1f00
7c1f00
7c1f00
7c1f00
7c1f00
7ffc00
7ffc00
7ffc00
7ffc00
7c1f00
7c1f00
7c1f00
7c1f00
7c1f00
7c1f00
7c1f00
7c1f00
fffc00
fffc00
fffc00
fffc00
000000
000000
000000
000000
000000
000000
000000
000000
ENDCHAR
STARTCHAR U+0041
ENCODING 65
SWIDTH 1000 0
DWIDTH 20 0
BBX 20 40 0 -8
BITMAP
000000
000000
000000
000000
07c000
07c000
07c000
07c000
1ff000
1ff000
1ff000
1ff000
7c7c00
7c7c00
7c7c00
7c7c00
f01f00
f01f00
f01f00
f01f00
ffff00
ffff00
ffff00
ffff00
f01f00
f01f00
f01f00
f01f00
f01f00
f01f00
f01f00
f01f00
000000
000000
000000
000000
000000
000000
000000
000000
ENDCHAR
STARTCHAR U+0040
ENCODING 64
SWIDTH 1000 0
DWIDTH 20 0
BBX 20 40 0 -8
BITMAP
000000
000000
000000
000000
7ffc00
7ffc00
7ffc00
7ffc00
f01f00
f01f00
f01f00
f01f00
f7ff00
f7ff00
f7ff00
f7ff00
ff7f00
ff7f00
ff7f00
ff7f00
f7ff00
f7ff00
f7ff00
f7ff00
f00000
f00000
f00000
f00000
7ffc00
7ffc00
7ffc00
7ffc00
000000
000000
000000
000000
000000
000000
000000
000000
ENDCHAR
STARTCHAR U+003F
ENCODING 63
SWIDTH 1000 0
DWIDTH 20 0
BBX 20 40 0 -8
BITMAP
000000
000000
000000
000000
7ffc00
7ffc00
7ffc00
7ffc00
f01f00
f01f00
f01f00
f01f00
01fc00
01fc00
01fc00
01fc00
07c000
07c000
07c000
07c000
07c000
07c000
07c000
07c000
000000
000000
000000
000000
07c000
07c000
07c000
07c000
000000
000000
000000
000000
000000
000000
000000
000000
ENDCHAR
STARTCHAR U+003E
ENCODING 62
SWIDTH 1000 0
DWIDTH 20 0
BBX 20 40 0 -8
BITMAP
000000
000000
000000
000000
f00000
f00000
f00000
f00000
1f0000
1f0000
1f0000
1f0000
01f000
01f000
01f000
01f000
001f00
001f00
001f00
001f00
01f000
01f000
01f000
01f000
1f0000
1f0000
1f0000
1f0000
f00000
f00000
f00000
f00000
000000
000000
000000
000000
000000
000000
000000
000000
ENDCHAR
STARTCHAR U+003D
ENCODING 61
SWIDTH 1000 0
DWIDTH 20 0
BBX 20 40 0 -8
BITMAP
000000
000000
000000
000000
000000
000000
000000
000000
000000
000000
000000
000000
ffff00
ffff00
ffff00
ffff00
000000
000000
000000
000000
ffff00
ffff00
ffff00
ffff00
000000
000000
000000
000000
000000
000000
000000
000000
000000
000000
000000
000000
000000
000000
000000
000000
ENDCHAR
STARTCHAR U+003C
ENCODING 60
SWIDTH 1000 0
DWIDTH 20 0
BBX 20 40 0 -8
BITMAP
000000
000000
000000
000000
001f00
001f00
001f00
001f00
01f000
01f000
01f000
01f000
1f0000
1f0000
1f0000
1f0000
f00000
f00000
f00000
f00000
1f0000
1f0000
1f0000
1f0000
01f000
01f000
01f000
01f000
001f00
001f00
001f00
001f00
000000
000000
000000
000000
000000
000000
000000
000000
ENDCHAR
STARTCHAR U+003B
ENCODING 59
SWIDTH 1000 0
DWIDTH 20 0
BBX 20 40 0 -8
BITMAP
000000
000000
000000
000000
000000
000000
000000
000000
1fc000
1fc000
1fc000
1fc000
1fc000
1fc000
1fc000
1fc000
000000
000000
000000
000000
000000
000000
000000
000000
1fc000
1fc000
1fc000
1fc000
1f0000
1f0000
1f0000
1f0000
7c0000
7c0000
7c0000
7c0000
000000
000000
000000
000000
ENDCHAR
STARTCHAR U+003A
ENCODING 58
SWIDTH 1000 0
DWIDTH 20 0
BBX 20 40 0 -8
BITMAP
000000
000000
000000
000000
000000
000000
000000
000000
1fc000
1fc000
1fc000
1fc000
1fc000
1fc000
1fc000
1fc000
000000
000000
000000
000000
000000
000000
000000
000000
1fc000
1fc000
1fc000
1fc000
1fc000
1fc000
1fc000
1fc000
000000
000000
000000
000000
000000
000000
000000
000000
ENDCHAR
STARTCHAR U+0039
ENCODING 57
SWIDTH 1000 0
DWIDTH 20 0
BBX 20 40 0 -8
BITMAP
000000
000000
000000
000000
7ffc00
7ffc00
7ffc00
7ffc00
f01f00
f01f00
f01f00
f01f00
f07f00
f07f00
f07f00
f07f00
7fff00
7fff00
7fff00
7fff00
001f00
001f00
001f00
001f00
007c00
007c00
007c00
007c00
7ff000
7ff000
7ff000
7ff000
000000
000000
000000
000000
000000
000000
000000
000000
ENDCHAR
STARTCHAR U+0038
ENCODING 56
SWIDTH 1000 0
DWIDTH 20 0
BBX 20 40 0 -8
BITMAP
000000
000000
000000
000000
7ffc00
7ffc00
7ffc00
7ffc00
f01f00
f01f00
f01f00
f01f00
f01f00
f01f00
f01f00
f01f00
7ffc00
7ffc00
7ffc00
7ffc00
f01f00
f01f00
f01f00
f01f00
f01f00
f01f00
f01f00
f01f00
7ffc00
7ffc00
7ffc00
7ffc00
000000
000000
000000
000000
000000
000000
000000
000000
ENDCHAR
STARTCHAR U+0037
ENCODING 55
SWIDTH 1000 0
DWIDTH 20 0
BBX 20 40 0 -8
BITMAP
000000
000000
000000
000000
ffff00
ffff00
ffff00
ffff00
001f00
001f00
001f00
001f00
007c00
007c00
007c00
007c00
01f000
01f000
01f000
01f000
07c000
07c000
07c000
07c000
1f0000
1f0000
1f0000
1f0000
1f0000
1f0000
1f0000
1f0000
000000
000000
000000
000000
000000
000000
000000
000000
ENDCHAR
STARTCHAR U+0036
ENCODING 54
SWIDTH 1000 0
DWIDTH 20 0
BBX 20 40 0 -8
BITMAP
000000
000000
000000
000000
1ffc00
1ffc00
1ffc00
1ffc00
7c0000
7c0000
7c0000
7c0000
f00000
f00000
f00000
f00000
fffc00
fffc00
fffc00
fffc00
fc1f00
fc1f00
fc1f00
fc1f00
f01f00
f01f00
f01f00
f01f00
7ffc00
7ffc00
7ffc00
7ffc00
000000
000000
000000
000000
000000
000000
000000
000000
ENDCHAR
STARTCHAR U+0035
ENCODING 53
SWIDTH 1000 0
DWIDTH 20 0
BBX 20 40 0 -8
BITMAP
000000
000000
000000
000000
ffff00
ffff00
ffff00
ffff00
f00000
f00000
f00000
f00000
fffc00
fffc00
fffc00
fffc00
fc1f00
fc1f00
fc1f00
fc1f00
001f00
001f00
001f00
001f00
f01f00
f01f00
f01f00
f01f00
7ffc00
7ffc00
7ffc00
7ffc00
000000
000000
000000
000000
000000
000000
000000
000000
ENDCHAR
STARTCHAR U+0034
ENCODING 52
SWIDTH 1000 0
DWIDTH 20 0
BBX 20 40 0 -8
BITMAP
000000
000000
000000
000000
01f000
01f000
01f000
01f000
07f000
07f000
07f000
07f000
1ff000
1ff000
1ff000
1ff000
7df000
7df000
7df000
7df000
ffff00
ffff00
ffff00
ffff00
01f000
01f000
01f000
01f000
01f000
01f000
01f000
01f000
000000
000000
000000
000000
000000
000000
000000
000000
ENDCHAR
STARTCHAR U+0033
ENCODING 51
SWIDTH 1000 0
DWIDTH 20 0
BBX 20 40 0 -8
BITMAP
000000
000000
000000
000000
ffff00
ffff00
ffff00
ffff00
007c00
007c00
007c00
007c00
01f000
01f000
01f000
01f000
07fc00
07fc00
07fc00
07fc00
001f00
001f00
001f00
001f00
f01f00
f01f00
f01f00
f01f00
7ffc00
7ffc00
7ffc00
7ffc00
000000
000000
000000
000000
000000
000000
000000
000000
ENDCHAR
STARTCHAR U+0032
ENCODING 50
SWIDTH 1000 0
DWIDTH 20 0
BBX 20 40 0 -8
BITMAP
000000
000000
000000
000000
7ffc00
7ffc00
7ffc00
7ffc00
f01f00
f01f00
f01f00
f01f00
001f00
001f00
001f00
001f00
07fc00
07fc00
07fc00
07fc00
7f0000
7f0000
7f0000
7f0000
f00000
f00000
f00000
f00000
ffff00
ffff00
ffff00
ffff00
000000
000000
000000
000000
000000
000000
000000
000000
ENDCHAR
STARTCHAR U+0031
ENCODING 49
SWIDTH 1000 0
DWIDTH 20 0
BBX 20 40 0 -8
BITMAP
000000
000000
000000
000000
07c000
07c000
07c000
07c000
1fc000
1fc000
1fc000
1fc000
7fc000
7fc000
7fc000
7fc000
07c000
07c000
07c000
07c000
07c000
07c000
07c000
07c000
07c000
07c000
07c000
07c000
7ffc00
7ffc00
7ffc00
7ffc00
000000
000000
000000
000000
000000
000000
000000
000000
ENDCHAR
STARTCHAR U+0030
ENCODING 48
SWIDTH 1000 0
DWIDTH 20 0
BBX 20 40 0 -8
BITMAP
000000
000000
000000
000000
1ff000
1ff000
1ff000
1ff000
7c7c00
7c7c00
7c7c00
7c7c00
f01f00
f01f00
f01f00
f01f00
f01f00
f01f00
f01f00
f01f00
f01f00
f01f00
f01f00
f01f00
7c7c00
7c7c00
7c7c00
7c7c00
1ff000
1ff000
1ff000
1ff000
000000
000000
000000
000000
000000
000000
000000
000000
ENDCHAR
STARTCHAR U+002F
ENCODING 47
SWIDTH 1000 0
DWIDTH 20 0
BBX 20 40 0 -8
BITMAP
000000
000000
000000
000000
001f00
001f00
001f00
001f00
007c00
007c00
007c00
007c00
01f000
01f000
01f000
01f000
07c000
07c000
07c000
07c000
1f0000
1f0000
1f0000
1f0000
7c0000
7c0000
7c0000
7c0000
f00000
f00000
f00000
f00000
000000
000000
000000
000000
000000
000000
000000
000000
ENDCHAR
STARTCHAR U+002E
ENCODING 46
SWIDTH 1000 0
DWIDTH 20 0
BBX 20 40 0 -8
BITMAP
000000
000000
000000
000000
000000
000000
000000
000000
000000
000000
000000
000000
000000
000000
000000
000000
000000
000000
000000
000000
000000
000000
000000
000000
1fc000
1fc000
1fc000
1fc000
1fc000
1fc000
1fc000
1fc000
000000
000000
000000
000000
000000
000000
000000
000000
ENDCHAR
STARTCHAR U+002D
ENCODING 45
SWIDTH 1000 0
DWIDTH 20 0
BBX 20 40 0 -8
BITMAP
000000
000000
000000
000000
000000
000000
000000
000000
000000
000000
000000
000000
000000
000000
000000
000000
ffff00
ffff00
ffff00
ffff00
000000
000000
000000
000000
000000
000000
000000
000000
000000
000000
000000
000000
000000
000000
000000
000000
000000
000000
000000
000000
ENDCHAR
STARTCHAR U+002C
ENCODING 44
SWIDTH 1000 0
DWIDTH 20 0
BBX 20 40 0 -8
BITMAP
000000
000000
000000
000000
000000
000000
000000
000000
000000
000000
000000
000000
000000
000000
000000
000000
000000
000000
000000
000000
000000
000000
000000
000000
1fc000
1fc000
1fc000
1fc000
1f0000
1f0000
1f0000
1f0000
7c0000
7c0000
7c0000
7c0000
000000
000000
000000
000000
ENDCHAR
STARTCHAR U+002B
ENCODING 43
SWIDTH 1000 0
DWIDTH 20 0
BBX 20 40 0 -8
BITMAP
000000
000000
000000
000000
000000
000000
000000
000000
07c000
07c000
07c000
07c000
07c000
07c000
07c000
07c000
ffff00
ffff00
ffff00
ffff00
07c000
07c000
07c000
07c000
07c000
07c000
07c000
07c000
000000
000000
000000
000000
000000
000000
000000
000000
000000
000000
000000
000000
ENDCHAR
STARTCHAR U+002A
ENCODING 42
SWIDTH 1000 0
DWIDTH 20 0
BBX 20 40 0 -8
BITMAP
000000
000000
000000
000000
000000
000000
000000
000000
7c7c00
7c7c00
7c7c00
7c7c00
1ff000
1ff000
1ff000
1ff000
ffff00
ffff00
ffff00
ffff00
1ff000
1ff000
1ff000
1ff000
7c7c00
7c7c00
7c7c00
7c7c00
000000
000000
000000
000000
000000
000000
000000
000000
000000
000000
000000
000000
ENDCHAR
STARTCHAR U+0029
ENCODING 41
SWIDTH 1000 0
DWIDTH 20 0
BBX 20 40 0 -8
BITMAP
000000
000000
000000
000000
1f0000
1f0000
1f0000
1f0000
07c000
07c000
07c000
07c000
01f000
01f000
01f000
01f000
01f000
01f000
01f000
01f000
01f000
01f000
01f000
01f000
07c000
07c000
07c000
07c000
1f0000
1f0000
1f0000
1f0000
000000
000000
000000
000000
000000
000000
000000
000000
ENDCHAR
STARTCHAR U+0028
ENCODING 40
SWIDTH 1000 0
DWIDTH 20 0
BBX 20 40 0 -8
BITMAP
000000
000000
000000
000000
01f000
01f000
01f000
01f000
07c000
07c000
07c000
07c000
1f0000
1f0000
1f0000
1f0000
1f0000
1f0000
1f0000
1f0000
1f0000
1f0000
1f0000
1f0000
07c000
07c000
07c000
07c000
01f000
01f000
01f000
01f000
000000
000000
000000
000000
000000
000000
000000
000000
ENDCHAR
STARTCHAR U+0027
ENCODING 39
SWIDTH 1000 0
DWIDTH 20 0
BBX 20 40 0 -8
BITMAP
000000
000000
000000
000000
07f000
07f000
07f000
07f000
07c000
07c000
07c000
07c000
1f0000
1f0000
1f0000
1f0000
000000
000000
000000
000000
000000
000000
000000
000000
000000
000000
000000
000000
000000
000000
000000
000000
000000
000000
000000
000000
000000
000000
000000
000000
ENDCHAR
STARTCHAR U+0026
ENCODING 38
SWIDTH 1000 0
DWIDTH 20 0
BBX 20 40 0 -8
BITMAP
000000
000000
000000
000000
7fc000
7fc000
7fc000
7fc000
f1f000
f1f000
f1f000
f1f000
f1f000
f1f000
f1f000
f1f000
7fc000
7fc000
7fc000
7fc000
f1ff00
f1ff00
f1ff00
f1ff00
f07c00
f07c00
f07c00
f07c00
7fff00
7fff00
7fff00
7fff00
000000
000000
000000
000000
000000
000000
000000
000000
ENDCHAR
STARTCHAR U+0025
ENCODING 37
SWIDTH 1000 0
DWIDTH 20 0
BBX 20 40 0 -8
BITMAP
000000
000000
000000
000000
7c1f00
7c1f00
7c1f00
7c1f00
ff7c00
ff7c00
ff7c00
ff7c00
7df000
7df000
7df000
7df000
07c000
07c000
07c000
07c000
1f7c00
1f7c00
1f7c00
1f7c00
7dff00
7dff00
7dff00
7dff00
f07c00
f07c00
f07c00
f07c00
000000
000000
000000
000000
000000
000000
000000
000000
ENDCHAR
STARTCHAR U+0024
ENCODING 36
SWIDTH 1000 0
DWIDTH 20 0
BBX 20 40 0 -8
BITMAP
000000
000000
000000
000000
07c000
07c000
07c000
07c000
7ffc00
7ffc00
7ffc00
7ffc00
f7c000
f7c000
f7c000
f7c000
7ffc00
7ffc00
7ffc00
7ffc00
07df00
07df00
07df00
07df00
7ffc00
7ffc00
7ffc00
7ffc00
07c000
07c000
07c000
07c000
000000
000000
000000
000000
000000
000000
000000
000000
ENDCHAR
STARTCHAR U+0023
ENCODING 35
SWIDTH 1000 0
DWIDTH 20 0
BBX 20 40 0 -8
BITMAP
000000
000000
000000
000000
7df000
7df000
7df000
7df000
7df000
7df000
7df000
7df000
fffc00
fffc00
fffc00
fffc00
7df000
7df000
7df000
7df000
fffc00
fffc00
fffc00
fffc00
7df000
7df000
7df000
7df000
7df000
7df000
7df000
7df000
000000
000000
000000
000000
000000
000000
000000
000000
ENDCHAR
STARTCHAR U+0022
ENCODING 34
SWIDTH 1000 0
DWIDTH 20 0
BBX 20 40 0 -8
BITMAP
000000
000000
000000
000000
7df000
7df000
7df000
7df000
7df000
7df000
7df000
7df000
7df000
7df000
7df000
7df000
000000
000000
000000
000000
000000
000000
000000
000000
000000
000000
000000
000000
000000
000000
000000
000000
000000
000000
000000
000000
000000
000000
000000
000000
ENDCHAR
STARTCHAR U+0021
ENCODING 33
SWIDTH 1000 0
DWIDTH 20 0
BBX 20 40 0 -8
BITMAP
000000
000000
000000
000000
07c000
07c000
07c000
07c000
07c000
07c000
07c000
07c000
07c000
07c000
07c000
07c000
07c000
07c000
07c000
07c000
07c000
07c000
07c000
07c000
000000
000000
000000
000000
07c000
07c000
07c000
07c000
000000
000000
000000
000000
000000
000000
000000
000000
ENDCHAR
STARTCHAR U+2E2E
ENCODING 11822
SWIDTH 1000 0
DWIDTH 20 0
BBX 20 40 0 -8
BITMAP
000000
000000
000000
000000
7ffc00
7ffc00
7ffc00
7ffc00
f01f00
f01f00
f01f00
f01f00
7f0000
7f0000
7f0000
7f0000
07c000
07c000
07c000
07c000
07c000
07c000
07c000
07c000
000000
000000
000000
000000
07c000
07c000
07c000
07c000
000000
000000
000000
000000
000000
000000
000000
000000
ENDCHAR
STARTCHAR U+00b7
ENCODING 183
SWIDTH 1000 0
DWIDTH 20 0
BBX 20 40 0 -8
BITMAP
000000
000000
000000
000000
000000
000000
000000
000000
000000
000000
000000
000000
000000
000000
000000
000000
07c000
07c000
07c000
07c000
000000
000000
000000
000000
000000
000000
000000
000000
000000
000000
000000
000000
000000
000000
000000
000000
000000
000000
000000
000000
ENDCHAR
STARTCHAR U+00A3
ENCODING 163
SWIDTH 1000 0
DWIDTH 20 0
BBX 20 40 0 -8
BITMAP
000000
000000
000000
000000
07fc00
07fc00
07fc00
07fc00
1f1f00
1f1f00
1f1f00
1f1f00
1f0000
1f0000
1f0000
1f0000
fff000
fff000
fff000
fff000
1f0000
1f0000
1f0000
1f0000
7ff000
7ff000
7ff000
7ff000
ff7f00
ff7f00
ff7f00
ff7f00
7c0000
7c0000
7c0000
7c0000
000000
000000
000000
000000
ENDCHAR
STARTCHAR U+2260
ENCODING 8800
SWIDTH 1000 0
DWIDTH 20 0
BBX 20 40 0 -8
BITMAP
000000
000000
000000
000000
001f00
001f00
001f00
001f00
007c00
007c00
007c00
007c00
ffff00
ffff00
ffff00
ffff00
07c000
07c000
07c000
07c000
ffff00
ffff00
ffff00
ffff00
7c0000
7c0000
7c0000
7c0000
f00000
f00000
f00000
f00000
000000
000000
000000
000000
000000
000000
000000
000000
ENDCHAR
STARTCHAR U+03C0
ENCODING 960
SWIDTH 1000 0
DWIDTH 20 0
BBX 20 40 0 -8
BITMAP
000000
000000
000000
000000
000000
000000
000000
000000
000000
000000
000000
000000
ffff00
ffff00
ffff00
ffff00
1f7c00
1f7c00
1f7c00
1f7c00
1f7c00
1f7c00
1f7c00
1f7c00
1f7c00
1f7c00
1f7c00
1f7c00
7c7c00
7c7c00
7c7c00
7c7c00
000000
000000
000000
000000
000000
000000
000000
000000
ENDCHAR
STARTCHAR U+2265
ENCODING 8805
SWIDTH 1000 0
DWIDTH 20 0
BBX 20 40 0 -8
BITMAP
000000
000000
000000
000000
f00000
f00000
f00000
f00000
1f0000
1f0000
1f0000
1f0000
01f000
01f000
01f000
01f000
001f00
001f00
001f00
001f00
01f000
01f000
01f000
01f000
1f0000
1f0000
1f0000
1f0000
f00000
f00000
f00000
f00000
ffff00
ffff00
ffff00
ffff00
000000
000000
000000
000000
ENDCHAR
STARTCHAR U+2264
ENCODING 8804
SWIDTH 1000 0
DWIDTH 20 0
BBX 20 40 0 -8
BITMAP
000000
000000
000000
000000
001f00
001f00
001f00
001f00
01f000
01f000
01f000
01f000
1f0000
1f0000
1f0000
1f0000
f00000
f00000
f00000
f00000
1f0000
1f0000
1f0000
1f0000
01f000
01f000
01f000
01f000
001f00
001f00
001f00
001f00
ffff00
ffff00
ffff00
ffff00
000000
000000
000000
000000
ENDCHAR
STARTCHAR U+2502
ENCODING 9474
SWIDTH 1000 0
DWIDTH 20 0
BBX 20 40 0 -8
BITMAP
07c000
07c000
07c000
07c000
07c000
07c000
07c000
07c000
07c000
07c000
07c000
07c000
07c000
07c000
07c000
07c000
07c000
07c000
07c000
07c000
07c000
07c000
07c000
07c000
07c000
07c000
07c000
07c000
07c000
07c000
07c000
07c000
07c000
07c000
07c000
07c000
07c000
07c000
07c000
07c000
ENDCHAR
STARTCHAR U+252C
ENCODING 9516
SWIDTH 1000 0
DWIDTH 20 0
BBX 20 40 0 -8
BITMAP
000000
000000
000000
000000
000000
000000
000000
000000
000000
000000
000000
000000
000000
000000
000000
000000
fffff0
fffff0
fffff0
fffff0
07c000
07c000
07c000
07c000
07c000
07c000
07c000
07c000
07c000
07c000
07c000
07c000
07c000
07c000
07c000
07c000
07c000
07c000
07c000
07c000
ENDCHAR
STARTCHAR U+2534
ENCODING 9524
SWIDTH 1000 0
DWIDTH 20 0
BBX 20 40 0 -8
BITMAP
07c000
07c000
07c000
07c000
07c000
07c000
07c000
07c000
07c000
07c000
07c000
07c000
07c000
07c000
07c000
07c000
fffff0
fffff0
fffff0
fffff0
000000
000000
000000
000000
000000
000000
000000
000000
000000
000000
000000
000000
000000
000000
000000
000000
000000
000000
000000
000000
ENDCHAR
STARTCHAR U+2524
ENCODING 9508
SWIDTH 1000 0
DWIDTH 20 0
BBX 20 40 0 -8
BITMAP
07c000
07c000
07c000
07c000
07c000
07c000
07c000
07c000
07c000
07c000
07c000
07c000
07c000
07c000
07c000
07c000
ffc000
ffc000
ffc000
ffc000
07c000
07c000
07c000
07c000
07c000
07c000
07c000
07c000
07c000
07c000
07c000
07c000
07c000
07c000
07c000
07c000
07c000
07c000
07c000
07c000
ENDCHAR
STARTCHAR U+251C
ENCODING 9500
SWIDTH 1000 0
DWIDTH 20 0
BBX 20 40 0 -8
BITMAP
07c000
07c000
07c000
07c000
07c000
07c000
07c000
07c000
07c000
07c000
07c000
07c000
07c000
07c000
07c000
07c000
07fff0
07fff0
07fff0
07fff0
07c000
07c000
07c000
07c000
07c000
07c000
07c000
07c000
07c000
07c000
07c000
07c000
07c000
07c000
07c000
07c000
07c000
07c000
07c000
07c000
ENDCHAR
STARTCHAR U+23BD
ENCODING 9149
SWIDTH 1000 0
DWIDTH 20 0
BBX 20 40 0 -8
BITMAP
000000
000000
000000
000000
000000
000000
000000
000000
000000
000000
000000
000000
000000
000000
000000
000000
000000
000000
000000
000000
000000
000000
000000
000000
000000
000000
000000
000000
000000
000000
000000
000000
fffff0
fffff0
fffff0
fffff0
000000
000000
000000
000000
ENDCHAR
STARTCHAR U+23BC
ENCODING 9148
SWIDTH 1000 0
DWIDTH 20 0
BBX 20 40 0 -8
BITMAP
000000
000000
000000
000000
000000
000000
000000
000000
000000
000000
000000
000000
000000
000000
000000
000000
000000
000000
000000
000000
000000
000000
000000
000000
fffff0
fffff0
fffff0
fffff0
000000
000000
000000
000000
000000
000000
000000
000000
000000
000000
000000
000000
ENDCHAR
STARTCHAR U+2500
ENCODING 9472
SWIDTH 1000 0
DWIDTH 20 0
BBX 20 40 0 -8
BITMAP
000000
000000
000000
000000
000000
000000
000000
000000
000000
000000
000000
000000
000000
000000
000000
000000
fffff0
fffff0
fffff0
fffff0
000000
000000
000000
000000
000000
000000
000000
000000
000000
000000
000000
000000
000000
000000
000000
000000
000000
000000
000000
000000
ENDCHAR
STARTCHAR U+23BB
ENCODING 9147
SWIDTH 1000 0
DWIDTH 20 0
BBX 20 40 0 -8
BITMAP
000000
000000
000000
000000
000000
000000
000000
000000
fffff0
fffff0
fffff0
fffff0
000000
000000
000000
000000
000000
000000
000000
000000
000000
000000
000000
000000
000000
000000
000000
000000
000000
000000
000000
000000
000000
000000
000000
000000
000000
000000
000000
000000
ENDCHAR
STARTCHAR U+23BA
ENCODING 9146
SWIDTH 1000 0
DWIDTH 20 0
BBX 20 40 0 -8
BITMAP
fffff0
fffff0
fffff0
fffff0
000000
000000
000000
000000
000000
000000
000000
000000
000000
000000
000000
000000
000000
000000
000000
000000
000000
000000
000000
000000
000000
000000
000000
000000
000000
000000
000000
000000
000000
000000
000000
000000
000000
000000
000000
000000
ENDCHAR
STARTCHAR U+253C
ENCODING 9532
SWIDTH 1000 0
DWIDTH 20 0
BBX 20 40 0 -8
BITMAP
07c000
07c000
07c000
07c000
07c000
07c000
07c000
07c000
07c000
07c000
07c000
07c000
07c000
07c000
07c000
07c000
fffff0
fffff0
fffff0
fffff0
07c000
07c000
07c000
07c000
07c000
07c000
07c000
07c000
07c000
07c000
07c000
07c000
07c000
07c000
07c000
07c000
07c000
07c000
07c000
07c000
ENDCHAR
STARTCHAR U+2514
ENCODING 9492
SWIDTH 1000 0
DWIDTH 20 0
BBX 20 40 0 -8
BITMAP
07c000
07c000
07c000
07c000
07c000
07c000
07c000
07c000
07c000
07c000
07c000
07c000
07c000
07c000
07c000
07c000
07fff0
07fff0
07fff0
07fff0
000000
000000
000000
000000
000000
000000
000000
000000
000000
000000
000000
000000
000000
000000
000000
000000
000000
000000
000000
000000
ENDCHAR
STARTCHAR U+250C
ENCODING 9484
SWIDTH 1000 0
DWIDTH 20 0
BBX 20 40 0 -8
BITMAP
000000
000000
000000
000000
000000
000000
000000
000000
000000
000000
000000
000000
000000
000000
000000
000000
07fff0
07fff0
07fff0
07fff0
07c000
07c000
07c000
07c000
07c000
07c000
07c000
07c000
07c000
07c000
07c000
07c000
07c000
07c000
07c000
07c000
07c000
07c000
07c000
07c000
ENDCHAR
STARTCHAR U+2510
ENCODING 9488
SWIDTH 1000 0
DWIDTH 20 0
BBX 20 40 0 -8
BITMAP
000000
000000
000000
000000
000000
000000
000000
000000
000000
000000
000000
000000
000000
000000
000000
000000
ffc000
ffc000
ffc000
ffc000
07c000
07c000
07c000
07c000
07c000
07c000
07c000
07c000
07c000
07c000
07c000
07c000
07c000
07c000
07c000
07c000
07c000
07c000
07c000
07c000
ENDCHAR
STARTCHAR U+2518
ENCODING 9496
SWIDTH 1000 0
DWIDTH 20 0
BBX 20 40 0 -8
BITMAP
07c000
07c000
07c000
07c000
07c000
07c000
07c000
07c000
07c000
07c000
07c000
07c000
07c000
07c000
07c000
07c000
ffc000
ffc000
ffc000
ffc000
000000
000000
000000
000000
000000
000000
000000
000000
000000
000000
000000
000000
000000
000000
000000
000000
000000
000000
000000
000000
ENDCHAR
STARTCHAR U+240B
ENCODING 9227
SWIDTH 1000 0
DWIDTH 20 0
BBX 20 40 0 -8
BITMAP
000000
000000
000000
000000
f1f000
f1f000
f1f000
f1f000
f1f000
f1f000
f1f000
f1f000
7fc000
7fc000
7fc000
7fc000
7fc000
7fc000
7fc000
7fc000
1fff00
1fff00
1fff00
1fff00
01f000
01f000
01f000
01f000
01f000
01f000
01f000
01f000
01f000
01f000
01f000
01f000
01f000
01f000
01f000
01f000
ENDCHAR
STARTCHAR U+2424
ENCODING 9252
SWIDTH 1000 0
DWIDTH 20 0
BBX 20 40 0 -8
BITMAP
000000
000000
000000
000000
f1f000
f1f000
f1f000
f1f000
fdf000
fdf000
fdf000
fdf000
fff000
fff000
fff000
fff000
f7f000
f7f000
f7f000
f7f000
f7f000
f7f000
f7f000
f7f000
07c000
07c000
07c000
07c000
07c000
07c000
07c000
07c000
07c000
07c000
07c000
07c000
07ff00
07ff00
07ff00
07ff00
ENDCHAR
STARTCHAR U+00B1
ENCODING 177
SWIDTH 1000 0
DWIDTH 20 0
BBX 20 40 0 -8
BITMAP
000000
000000
000000
000000
000000
000000
000000
000000
07c000
07c000
07c000
07c000
07c000
07c000
07c000
07c000
ffff00
ffff00
ffff00
ffff00
07c000
07c000
07c000
07c000
07c000
07c000
07c000
07c000
ffff00
ffff00
ffff00
ffff00
000000
000000
000000
000000
000000
000000
000000
000000
ENDCHAR
STARTCHAR U+00B0
ENCODING 176
SWIDTH 1000 0
DWIDTH 20 0
BBX 20 40 0 -8
BITMAP
000000
000000
000000
000000
1ff000
1ff000
1ff000
1ff000
7c7c00
7c7c00
7c7c00
7c7c00
1ff000
1ff000
1ff000
1ff000
000000
000000
000000
000000
000000
000000
000000
000000
000000
000000
000000
000000
000000
000000
000000
000000
000000
000000
000000
000000
000000
000000
000000
000000
ENDCHAR
STARTCHAR U+240A
ENCODING 9226
SWIDTH 1000 0
DWIDTH 20 0
BBX 20 40 0 -8
BITMAP
000000
000000
000000
000000
f00000
f00000
f00000
f00000
f00000
f00000
f00000
f00000
f00000
f00000
f00000
f00000
f00000
f00000
f00000
f00000
ffff00
ffff00
ffff00
ffff00
07c000
07c000
07c000
07c000
07fc00
07fc00
07fc00
07fc00
07c000
07c000
07c000
07c000
07c000
07c000
07c000
07c000
ENDCHAR
STARTCHAR U+240D
ENCODING 9229
SWIDTH 1000 0
DWIDTH 20 0
BBX 20 40 0 -8
BITMAP
000000
000000
000000
000000
7fc000
7fc000
7fc000
7fc000
f00000
f00000
f00000
f00000
f00000
f00000
f00000
f00000
f00000
f00000
f00000
f00000
7ffc00
7ffc00
7ffc00
7ffc00
07df00
07df00
07df00
07df00
07fc00
07fc00
07fc00
07fc00
07df00
07df00
07df00
07df00
07df00
07df00
07df00
07df00
ENDCHAR
STARTCHAR U+240C
ENCODING 9228
SWIDTH 1000 0
DWIDTH 20 0
BBX 20 40 0 -8
BITMAP
000000
000000
000000
000000
ffc000
ffc000
ffc000
ffc000
f00000
f00000
f00000
f00000
ff0000
ff0000
ff0000
ff0000
f00000
f00000
f00000
f00000
f7ff00
f7ff00
f7ff00
f7ff00
07c000
07c000
07c000
07c000
07fc00
07fc00
07fc00
07fc00
07c000
07c000
07c000
07c000
07c000
07c000
07c000
07c000
ENDCHAR
STARTCHAR U+2409
ENCODING 9225
SWIDTH 1000 0
DWIDTH 20 0
BBX 20 40 0 -8
BITMAP
000000
000000
000000
000000
f7c000
f7c000
f7c000
f7c000
f7c000
f7c000
f7c000
f7c000
ffc000
ffc000
ffc000
ffc000
f7c000
f7c000
f7c000
f7c000
ffff00
ffff00
ffff00
ffff00
01f000
01f000
01f000
01f000
01f000
01f000
01f000
01f000
01f000
01f000
01f000
01f000
01f000
01f000
01f000
01f000
ENDCHAR
STARTCHAR U+2592
ENCODING 9618
SWIDTH 1000 0
DWIDTH 20 0
BBX 20 40 0 -8
BITMAP
000000
000000
000000
000000
f7df00
f7df00
f7df00
f7df00
7c7c00
7c7c00
7c7c00
7c7c00
f7df00
f7df00
f7df00
f7df00
7c7c00
7c7c00
7c7c00
7c7c00
f7df00
f7df00
f7df00
f7df00
7c7c00
7c7c00
7c7c00
7c7c00
f7df00
f7df00
f7df00
f7df00
000000
000000
000000
000000
000000
000000
000000
000000
ENDCHAR
STARTCHAR U+25C6
ENCODING 9670
SWIDTH 1000 0
DWIDTH 20 0
BBX 20 40 0 -8
BITMAP
000000
000000
000000
000000
07c000
07c000
07c000
07c000
1ff000
1ff000
1ff000
1ff000
7ffc00
7ffc00
7ffc00
7ffc00
ffff00
ffff00
ffff00
ffff00
7ffc00
7ffc00
7ffc00
7ffc00
1ff000
1ff000
1ff000
1ff000
07c000
07c000
07c000
07c000
000000
000000
000000
000000
000000
000000
000000
000000
ENDCHAR
STARTCHAR U+0020
ENCODING 32
SWIDTH 1000 0
DWIDTH 20 0
BBX 20 40 0 -8
BITMAP
000000
000000
000000
000000
000000
000000
000000
000000
000000
000000
000000
000000
000000
000000
000000
000000
000000
000000
000000
000000
000000
000000
000000
000000
000000
000000
000000
000000
000000
000000
000000
000000
000000
000000
000000
000000
000000
000000
000000
000000
ENDCHAR
ENDFONT
